<?xml version="1.0" encoding="utf-8"?>
<svg xmlns="http://www.w3.org/2000/svg" xmlns:xlink="http://www.w3.org/1999/xlink" width="600" height="400" viewBox="0 0 2400 1600">
<defs>
  <clipPath id="clip9900">
    <rect x="0" y="0" width="2400" height="1600"/>
  </clipPath>
</defs>
<path clip-path="url(#clip9900)" d="
M0 1600 L2400 1600 L2400 0 L0 0  Z
  " fill="#ffffff" fill-rule="evenodd" fill-opacity="1"/>
<defs>
  <clipPath id="clip9901">
    <rect x="480" y="0" width="1681" height="1600"/>
  </clipPath>
</defs>
<path clip-path="url(#clip9900)" d="
M141.865 1487.47 L2112.76 1487.47 L2112.76 47.2441 L141.865 47.2441  Z
  " fill="#ffffff" fill-rule="evenodd" fill-opacity="1"/>
<defs>
  <clipPath id="clip9902">
    <rect x="141" y="47" width="1972" height="1441"/>
  </clipPath>
</defs>
<polyline clip-path="url(#clip9902)" style="stroke:#000000; stroke-width:2; stroke-opacity:0.1; fill:none" points="
  197.644,1487.47 197.644,47.2441 
  "/>
<polyline clip-path="url(#clip9902)" style="stroke:#000000; stroke-width:2; stroke-opacity:0.1; fill:none" points="
  662.477,1487.47 662.477,47.2441 
  "/>
<polyline clip-path="url(#clip9902)" style="stroke:#000000; stroke-width:2; stroke-opacity:0.1; fill:none" points="
  1127.31,1487.47 1127.31,47.2441 
  "/>
<polyline clip-path="url(#clip9902)" style="stroke:#000000; stroke-width:2; stroke-opacity:0.1; fill:none" points="
  1592.14,1487.47 1592.14,47.2441 
  "/>
<polyline clip-path="url(#clip9902)" style="stroke:#000000; stroke-width:2; stroke-opacity:0.1; fill:none" points="
  2056.98,1487.47 2056.98,47.2441 
  "/>
<polyline clip-path="url(#clip9902)" style="stroke:#000000; stroke-width:2; stroke-opacity:0.1; fill:none" points="
  141.865,1174.97 2112.76,1174.97 
  "/>
<polyline clip-path="url(#clip9902)" style="stroke:#000000; stroke-width:2; stroke-opacity:0.1; fill:none" points="
  141.865,812.65 2112.76,812.65 
  "/>
<polyline clip-path="url(#clip9902)" style="stroke:#000000; stroke-width:2; stroke-opacity:0.1; fill:none" points="
  141.865,450.328 2112.76,450.328 
  "/>
<polyline clip-path="url(#clip9902)" style="stroke:#000000; stroke-width:2; stroke-opacity:0.1; fill:none" points="
  141.865,88.0053 2112.76,88.0053 
  "/>
<polyline clip-path="url(#clip9900)" style="stroke:#000000; stroke-width:4; stroke-opacity:1; fill:none" points="
  141.865,1487.47 2112.76,1487.47 
  "/>
<polyline clip-path="url(#clip9900)" style="stroke:#000000; stroke-width:4; stroke-opacity:1; fill:none" points="
  141.865,1487.47 141.865,47.2441 
  "/>
<polyline clip-path="url(#clip9900)" style="stroke:#000000; stroke-width:4; stroke-opacity:1; fill:none" points="
  197.644,1487.47 197.644,1465.87 
  "/>
<polyline clip-path="url(#clip9900)" style="stroke:#000000; stroke-width:4; stroke-opacity:1; fill:none" points="
  662.477,1487.47 662.477,1465.87 
  "/>
<polyline clip-path="url(#clip9900)" style="stroke:#000000; stroke-width:4; stroke-opacity:1; fill:none" points="
  1127.31,1487.47 1127.31,1465.87 
  "/>
<polyline clip-path="url(#clip9900)" style="stroke:#000000; stroke-width:4; stroke-opacity:1; fill:none" points="
  1592.14,1487.47 1592.14,1465.87 
  "/>
<polyline clip-path="url(#clip9900)" style="stroke:#000000; stroke-width:4; stroke-opacity:1; fill:none" points="
  2056.98,1487.47 2056.98,1465.87 
  "/>
<polyline clip-path="url(#clip9900)" style="stroke:#000000; stroke-width:4; stroke-opacity:1; fill:none" points="
  141.865,1174.97 171.428,1174.97 
  "/>
<polyline clip-path="url(#clip9900)" style="stroke:#000000; stroke-width:4; stroke-opacity:1; fill:none" points="
  141.865,812.65 171.428,812.65 
  "/>
<polyline clip-path="url(#clip9900)" style="stroke:#000000; stroke-width:4; stroke-opacity:1; fill:none" points="
  141.865,450.328 171.428,450.328 
  "/>
<polyline clip-path="url(#clip9900)" style="stroke:#000000; stroke-width:4; stroke-opacity:1; fill:none" points="
  141.865,88.0053 171.428,88.0053 
  "/>
<g clip-path="url(#clip9900)">
<text style="fill:#000000; fill-opacity:1; font-family:Arial,Helvetica Neue,Helvetica,sans-serif; font-size:48px; text-anchor:middle;" transform="rotate(0, 197.644, 1541.47)" x="197.644" y="1541.47">-4.0</text>
</g>
<g clip-path="url(#clip9900)">
<text style="fill:#000000; fill-opacity:1; font-family:Arial,Helvetica Neue,Helvetica,sans-serif; font-size:48px; text-anchor:middle;" transform="rotate(0, 662.477, 1541.47)" x="662.477" y="1541.47">-3.5</text>
</g>
<g clip-path="url(#clip9900)">
<text style="fill:#000000; fill-opacity:1; font-family:Arial,Helvetica Neue,Helvetica,sans-serif; font-size:48px; text-anchor:middle;" transform="rotate(0, 1127.31, 1541.47)" x="1127.31" y="1541.47">-3.0</text>
</g>
<g clip-path="url(#clip9900)">
<text style="fill:#000000; fill-opacity:1; font-family:Arial,Helvetica Neue,Helvetica,sans-serif; font-size:48px; text-anchor:middle;" transform="rotate(0, 1592.14, 1541.47)" x="1592.14" y="1541.47">-2.5</text>
</g>
<g clip-path="url(#clip9900)">
<text style="fill:#000000; fill-opacity:1; font-family:Arial,Helvetica Neue,Helvetica,sans-serif; font-size:48px; text-anchor:middle;" transform="rotate(0, 2056.98, 1541.47)" x="2056.98" y="1541.47">-2.0</text>
</g>
<g clip-path="url(#clip9900)">
<text style="fill:#000000; fill-opacity:1; font-family:Arial,Helvetica Neue,Helvetica,sans-serif; font-size:48px; text-anchor:end;" transform="rotate(0, 117.865, 1192.47)" x="117.865" y="1192.47">-2</text>
</g>
<g clip-path="url(#clip9900)">
<text style="fill:#000000; fill-opacity:1; font-family:Arial,Helvetica Neue,Helvetica,sans-serif; font-size:48px; text-anchor:end;" transform="rotate(0, 117.865, 830.15)" x="117.865" y="830.15">0</text>
</g>
<g clip-path="url(#clip9900)">
<text style="fill:#000000; fill-opacity:1; font-family:Arial,Helvetica Neue,Helvetica,sans-serif; font-size:48px; text-anchor:end;" transform="rotate(0, 117.865, 467.828)" x="117.865" y="467.828">2</text>
</g>
<g clip-path="url(#clip9900)">
<text style="fill:#000000; fill-opacity:1; font-family:Arial,Helvetica Neue,Helvetica,sans-serif; font-size:48px; text-anchor:end;" transform="rotate(0, 117.865, 105.505)" x="117.865" y="105.505">4</text>
</g>
<polyline clip-path="url(#clip9902)" style="stroke:#0a0622; stroke-width:4; stroke-opacity:1; fill:none" points="
  688.391,1446.71 750.685,1428.6 755.444,1426.55 787.892,1410.48 807.699,1392.37 809.346,1374.25 790.759,1356.13 755.444,1340.54 747.034,1338.02 662.477,1321.83 
  641.988,1319.9 569.511,1314.77 476.544,1314.46 383.578,1319.64 381.345,1319.9 290.611,1331.12 252.652,1338.02 197.644,1349.02 
  "/>
<polyline clip-path="url(#clip9902)" style="stroke:#1f0b46; stroke-width:4; stroke-opacity:1; fill:none" points="
  197.644,1304.5 213.413,1301.78 290.611,1289.05 335.72,1283.67 383.578,1278.14 476.544,1271.52 569.511,1269.1 662.477,1271.28 755.444,1278.56 793.477,1283.67 
  848.411,1292.7 887.461,1301.78 941.377,1318.45 945.083,1319.9 977.677,1338.02 995.245,1356.13 998.605,1374.25 988.445,1392.37 965.351,1410.48 941.377,1422.53 
  928.342,1428.6 875.124,1446.71 
  "/>
<polyline clip-path="url(#clip9902)" style="stroke:#3b0963; stroke-width:4; stroke-opacity:1; fill:none" points="
  1020.52,1446.71 1034.34,1441.9 1070.57,1428.6 1108.5,1410.48 1127.31,1397.62 1134.67,1392.37 1148.76,1374.25 1152.1,1356.13 1144.51,1338.02 1127.31,1321.3 
  1125.65,1319.9 1092.16,1301.78 1045.29,1283.67 1034.34,1280.27 975.953,1265.55 941.377,1258.32 871.877,1247.44 848.411,1244.25 755.444,1235.86 662.477,1231.89 
  569.511,1232.01 476.544,1235.95 383.578,1243.47 350.816,1247.44 290.611,1254.76 223.735,1265.55 197.644,1269.83 
  "/>
<polyline clip-path="url(#clip9902)" style="stroke:#550f6d; stroke-width:4; stroke-opacity:1; fill:none" points="
  197.644,1239.16 257.681,1229.32 290.611,1223.89 383.578,1212.04 392.877,1211.2 476.544,1203.62 569.511,1198.5 662.477,1196.8 755.444,1198.7 848.411,1204.4 
  914.401,1211.2 941.377,1214.27 1034.34,1229.04 1035.74,1229.32 1115.48,1247.44 1127.31,1250.59 1174.54,1265.55 1220.28,1283.55 1220.53,1283.67 1252.33,1301.78 
  1274.14,1319.9 1286.01,1338.02 1287.97,1356.13 1280.08,1374.25 1262.38,1392.37 1234.89,1410.48 1220.28,1417.44 1196.19,1428.6 1146.4,1446.71 
  "/>
<polyline clip-path="url(#clip9902)" style="stroke:#6e186e; stroke-width:4; stroke-opacity:1; fill:none" points="
  1261.03,1446.71 1311.7,1428.6 1313.24,1427.9 1350.83,1410.48 1380.66,1392.37 1401.31,1374.25 1406.21,1366.4 1412.52,1356.13 1414.81,1338.02 1408.49,1319.9 
  1406.21,1317.03 1393,1301.78 1368.46,1283.67 1335.08,1265.55 1313.24,1256 1291.27,1247.44 1235.99,1229.32 1220.28,1224.81 1165.12,1211.2 1127.31,1202.89 
  1072.86,1193.09 1034.34,1186.75 941.377,1175.18 938.923,1174.97 848.411,1167.71 755.444,1163.9 662.477,1163.58 569.511,1166.62 476.544,1172.87 456.328,1174.97 
  383.578,1182.32 303.931,1193.09 290.611,1194.85 197.644,1210.54 
  "/>
<polyline clip-path="url(#clip9902)" style="stroke:#88216a; stroke-width:4; stroke-opacity:1; fill:none" points="
  197.644,1183.2 244.873,1174.97 290.611,1166.77 359.66,1156.86 383.578,1153.29 476.544,1142.79 527.846,1138.74 569.511,1135.31 662.477,1130.96 755.444,1129.86 
  848.411,1132.13 941.377,1137.9 949.996,1138.74 1034.34,1147.32 1102.13,1156.86 1127.31,1160.62 1204.09,1174.97 1220.28,1178.24 1282.48,1193.09 1313.24,1201.2 
  1346.6,1211.2 1399.94,1229.32 1406.21,1231.76 1442.7,1247.44 1477.42,1265.55 1499.18,1280.13 1504.07,1283.67 1522.17,1301.78 1532.49,1319.9 1534.85,1338.02 
  1529.1,1356.13 1515.08,1374.25 1499.18,1386.99 1492.43,1392.37 1460.48,1410.48 1419.72,1428.6 1406.21,1433.42 1368.65,1446.71 
  "/>
<polyline clip-path="url(#clip9902)" style="stroke:#a12b61; stroke-width:4; stroke-opacity:1; fill:none" points="
  1471.31,1446.71 1499.18,1437 1523.23,1428.6 1565.72,1410.48 1592.14,1396.3 1599.51,1392.37 1624.41,1374.25 1641.19,1356.13 1650.03,1338.02 1651.1,1319.9 
  1644.61,1301.78 1630.77,1283.67 1609.8,1265.55 1592.14,1253.93 1581.6,1247.44 1545.84,1229.32 1503.4,1211.2 1499.18,1209.59 1452.05,1193.09 1406.21,1178.73 
  1392.82,1174.97 1322.84,1156.86 1313.24,1154.52 1238.16,1138.74 1220.28,1135.17 1131.72,1120.62 1127.31,1119.93 1034.34,1108.43 964.441,1102.51 941.377,1100.6 
  848.411,1096.29 755.444,1095.46 662.477,1098 591.081,1102.51 569.511,1103.79 476.544,1112.6 414.32,1120.62 383.578,1124.39 292.312,1138.74 290.611,1139 
  197.644,1156.34 
  "/>
<polyline clip-path="url(#clip9902)" style="stroke:#ba3655; stroke-width:4; stroke-opacity:1; fill:none" points="
  197.644,1129.58 243.626,1120.62 290.611,1111.01 341.314,1102.51 383.578,1095.01 458.719,1084.39 476.544,1081.7 569.511,1071.21 632.837,1066.28 662.477,1063.79 
  755.444,1059.57 848.411,1058.84 941.377,1061.72 1006.15,1066.28 1034.34,1068.27 1127.31,1078.42 1167.88,1084.39 1220.28,1092.25 1275.47,1102.51 1313.24,1109.74 
  1361.65,1120.62 1406.21,1131.08 1435.08,1138.74 1499.18,1156.77 1499.44,1156.86 1554.76,1174.97 1592.14,1188.45 1604.09,1193.09 1646.39,1211.2 1682.92,1229.32 
  1685.11,1230.59 1712.58,1247.44 1736,1265.55 1752.93,1283.67 1763.07,1301.78 1766.18,1319.9 1761.99,1338.02 1750.3,1356.13 1730.89,1374.25 1703.58,1392.37 
  1685.11,1401.7 1667.91,1410.48 1623.62,1428.6 1592.14,1439.3 1570.43,1446.71 
  "/>
<polyline clip-path="url(#clip9902)" style="stroke:#d04544; stroke-width:4; stroke-opacity:1; fill:none" points="
  1667.12,1446.71 1685.11,1440.72 1721.89,1428.6 1768.11,1410.48 1778.08,1405.64 1805.89,1392.37 1835.63,1374.25 1857.61,1356.13 1871.04,1339.23 1872.03,1338.02 
  1879.08,1319.9 1879.08,1301.78 1872.32,1283.67 1871.04,1281.88 1858.97,1265.55 1839.39,1247.44 1813.89,1229.32 1782.85,1211.2 1778.08,1208.76 1745.97,1193.09 
  1704.04,1174.97 1685.11,1167.46 1656.61,1156.86 1604.16,1138.74 1592.14,1134.78 1545.46,1120.62 1499.18,1107.23 1481.03,1102.51 1409.3,1084.39 1406.21,1083.62 
  1326.38,1066.28 1313.24,1063.45 1227.84,1048.16 1220.28,1046.8 1127.31,1033.71 1090.17,1030.04 1034.34,1024.46 941.377,1019.22 848.411,1018.01 755.444,1020.67 
  662.477,1027.03 635.158,1030.04 569.511,1036.62 485.638,1048.16 476.544,1049.31 383.578,1064.61 375.427,1066.28 290.611,1082.39 281.883,1084.39 197.689,1102.51 
  197.644,1102.52 
  "/>
<polyline clip-path="url(#clip9902)" style="stroke:#e25832; stroke-width:4; stroke-opacity:1; fill:none" points="
  197.644,1074.59 234.16,1066.28 290.611,1052.48 311.832,1048.16 383.578,1032.34 396.363,1030.04 476.544,1014.29 491.762,1011.93 569.511,998.569 606.28,993.811 
  662.477,985.628 755.444,976.194 764.459,975.695 848.411,970.336 941.377,969.08 1034.34,972.797 1065.25,975.695 1127.31,981.255 1215.33,993.811 1220.28,994.493 
  1313.24,1011.6 1314.68,1011.93 1396.76,1030.04 1406.21,1032.1 1469.58,1048.16 1499.18,1055.65 1536.55,1066.28 1592.14,1082.24 1598.96,1084.39 1656.14,1102.51 
  1685.11,1111.99 1709.71,1120.62 1759.25,1138.74 1778.08,1146.01 1804.73,1156.86 1846.03,1174.97 1871.04,1187.07 1882.99,1193.09 1915.11,1211.2 1942.3,1229.32 
  1964.01,1247.31 1964.15,1247.44 1980.28,1265.55 1990.37,1283.67 1994.1,1301.78 1991.15,1319.9 1981.25,1338.02 1964.11,1356.13 1964.01,1356.2 1939.53,1374.25 
  1907.29,1392.37 1871.04,1408.69 1867.15,1410.48 1818.84,1428.6 1778.08,1441.57 1762.2,1446.71 
  "/>
<polyline clip-path="url(#clip9902)" style="stroke:#f0711e; stroke-width:4; stroke-opacity:1; fill:none" points="
  1856.36,1446.71 1871.04,1442.11 1915.17,1428.6 1964.01,1411.1 1965.79,1410.48 2008.53,1392.37 2043.42,1374.25 2056.98,1365.12 
  "/>
<polyline clip-path="url(#clip9902)" style="stroke:#f88c0a; stroke-width:4; stroke-opacity:1; fill:none" points="
  2056.98,1413.05 2011.49,1428.6 1964.01,1442.55 1950.21,1446.71 
  "/>
<polyline clip-path="url(#clip9902)" style="stroke:#fbaa0f; stroke-width:4; stroke-opacity:1; fill:none" points="
  2044.3,1446.71 2056.98,1443.03 
  "/>
<polyline clip-path="url(#clip9902)" style="stroke:#f0711e; stroke-width:4; stroke-opacity:1; fill:none" points="
  2056.98,1219.38 2046.11,1211.2 2017.61,1193.09 1984.76,1174.97 1964.01,1164.62 1947.95,1156.86 1907.59,1138.74 1871.04,1123.38 1864.18,1120.62 1817.67,1102.51 
  1778.08,1087.63 1768.95,1084.39 1717.55,1066.28 1685.11,1054.91 1664.3,1048.16 1609.12,1030.04 1592.14,1024.31 1551.53,1011.93 1499.18,995.509 1493,993.811 
  1430.77,975.695 1406.21,968.09 1365.52,957.579 1313.24,943.047 1296.64,939.462 1220.28,921.401 1219.94,921.346 1127.31,904.684 1110.44,903.23 1034.34,895.696 
  941.377,896.341 871.204,903.23 848.411,904.916 755.444,918.257 740.995,921.346 662.477,934.968 643.313,939.462 569.511,954.041 555.549,957.579 476.544,974.894 
  473.596,975.695 398.521,993.811 383.578,997.041 326.828,1011.93 290.611,1020.54 257.027,1030.04 197.644,1045.45 
  "/>
<polyline clip-path="url(#clip9902)" style="stroke:#f88c0a; stroke-width:4; stroke-opacity:1; fill:none" points="
  197.644,1014.27 206.039,1011.93 265.645,993.811 290.611,985.408 324.673,975.695 381.04,957.579 383.578,956.66 440.451,939.462 476.544,926.674 494.94,921.346 
  547.486,903.23 569.511,893.86 595.25,885.114 636.378,866.998 662.477,850.863 666.615,848.882 691.088,830.766 702.415,812.65 702.193,794.534 691.757,776.417 
  672.247,758.301 662.477,752.023 648.509,740.185 620.992,722.069 588.091,703.953 569.511,695.14 553.79,685.837 519.109,667.721 481.029,649.605 476.544,647.656 
  445.676,631.489 408.674,613.372 383.578,601.78 371.605,595.256 336.557,577.14 300.24,559.024 290.611,554.38 266.512,540.908 233.396,522.792 199.926,504.676 
  197.644,503.452 
  "/>
<polyline clip-path="url(#clip9902)" style="stroke:#f0711e; stroke-width:4; stroke-opacity:1; fill:none" points="
  197.644,463.982 205.875,468.444 239.699,486.56 273.791,504.676 290.611,513.658 310.383,522.792 349.128,540.908 383.578,557.291 387.854,559.024 431.147,577.14 
  473.139,595.256 476.544,596.803 520.297,613.372 565.939,631.489 569.511,633.011 617.495,649.605 662.477,666.224 667.645,667.721 724.803,685.837 755.444,696.519 
  784.349,703.953 847.551,722.069 848.411,722.356 929.544,740.185 941.377,743.233 1034.34,755.976 1100.34,758.301 1127.31,759.436 1147.79,758.301 1220.28,755.33 
  1313.24,746.188 1354.81,740.185 1406.21,734.159 1487.43,722.069 1499.18,720.586 1592.14,706.612 1607.84,703.953 1685.11,692.426 1725.58,685.837 1778.08,678.144 
  1844.72,667.721 1871.04,663.949 1964.01,649.977 1966.4,649.605 2056.98,636.486 
  "/>
<polyline clip-path="url(#clip9902)" style="stroke:#e25832; stroke-width:4; stroke-opacity:1; fill:none" points="
  2056.98,599.853 1964.01,611.796 1951.21,613.372 1871.04,623.79 1808.46,631.489 1778.08,635.479 1685.11,646.779 1659.18,649.605 1592.14,657.537 1499.18,667.089 
  1491.52,667.721 1406.21,675.52 1313.24,681.708 1220.28,685.072 1127.31,684.992 1034.34,680.734 941.377,671.423 918.443,667.721 848.411,657.196 812.966,649.605 
  755.444,638.025 730.905,631.489 662.477,614.203 659.875,613.372 600.016,595.256 569.511,586.352 543.65,577.14 491.174,559.024 476.544,554.103 443.613,540.908 
  397.711,522.792 383.578,517.276 355.977,504.676 316.255,486.56 290.611,474.777 278.658,468.444 244.919,450.328 212.108,432.211 197.644,423.934 
  "/>
<polyline clip-path="url(#clip9902)" style="stroke:#d04544; stroke-width:4; stroke-opacity:1; fill:none" points="
  197.644,380.686 221.605,395.979 251.955,414.095 283.938,432.211 290.611,435.863 321.031,450.328 360.221,468.444 383.578,479.063 402.813,486.56 449.651,504.676 
  476.544,515.072 500.242,522.792 555.479,540.908 569.511,545.587 618.419,559.024 662.477,571.363 688.227,577.14 755.444,592.627 770.269,595.256 848.411,609.594 
  876.855,613.372 941.377,622.305 1034.34,630.68 1050.92,631.489 1127.31,635.395 1220.28,636.578 1313.24,634.735 1381.82,631.489 1406.21,630.423 1499.18,624.308 
  1592.14,616.532 1624.03,613.372 1685.11,607.676 1778.08,597.91 1801.18,595.256 1871.04,587.599 1960.72,577.14 1964.01,576.77 2056.98,565.79 
  "/>
<polyline clip-path="url(#clip9902)" style="stroke:#ba3655; stroke-width:4; stroke-opacity:1; fill:none" points="
  2056.98,533.15 1987.83,540.908 1964.01,543.63 1871.04,553.72 1818.58,559.024 1778.08,563.243 1685.11,572.031 1623.42,577.14 1592.14,579.842 1499.18,586.493 
  1406.21,591.549 1313.24,594.707 1257.44,595.256 1220.28,595.646 1199.65,595.256 1127.31,593.933 1034.34,589.196 941.377,580.931 912.438,577.14 848.411,568.964 
  791.144,559.024 755.444,552.941 700.541,540.908 662.477,532.659 625.761,522.792 569.511,507.732 560.063,504.676 504.009,486.56 476.544,477.585 452.888,468.444 
  406.841,450.328 383.578,440.916 365.087,432.211 328.018,414.095 292.882,395.979 290.611,394.732 263.864,377.863 237.517,359.747 213.945,341.631 197.644,327.164 
  
  "/>
<polyline clip-path="url(#clip9902)" style="stroke:#ba3655; stroke-width:4; stroke-opacity:1; fill:none" points="
  197.644,179.929 199.259,178.586 228.779,160.47 266.638,142.354 290.611,133.088 316.728,124.238 381.293,106.121 383.578,105.58 469.255,88.0053 
  "/>
<polyline clip-path="url(#clip9902)" style="stroke:#d04544; stroke-width:4; stroke-opacity:1; fill:none" points="
  380.229,88.0053 303.747,106.121 290.611,109.807 245.547,124.238 198.647,142.354 197.644,142.833 
  "/>
<polyline clip-path="url(#clip9902)" style="stroke:#e25832; stroke-width:4; stroke-opacity:1; fill:none" points="
  197.644,117.822 234.191,106.121 290.611,90.8583 302.655,88.0053 
  "/>
<polyline clip-path="url(#clip9902)" style="stroke:#f0711e; stroke-width:4; stroke-opacity:1; fill:none" points="
  233.231,88.0053 197.644,97.6325 
  "/>
<polyline clip-path="url(#clip9902)" style="stroke:#a12b61; stroke-width:4; stroke-opacity:1; fill:none" points="
  573.338,88.0053 569.511,88.569 476.544,104.863 470.409,106.121 395.913,124.238 383.578,127.865 340.833,142.354 297.71,160.47 290.611,164.304 267.401,178.586 
  245.7,196.702 231.132,214.818 223.125,232.934 221.132,251.05 224.631,269.166 233.124,287.283 246.134,305.399 263.203,323.515 283.894,341.631 290.611,346.741 
  310.214,359.747 340.695,377.863 373.958,395.979 383.578,400.892 413.603,414.095 457.049,432.211 476.544,440.035 506.793,450.328 561.669,468.444 569.511,470.99 
  627.212,486.56 662.477,495.958 702.814,504.676 755.444,516.004 795.673,522.792 848.411,531.723 921.171,540.908 941.377,543.487 1034.34,551.735 1127.31,556.695 
  1220.28,558.792 1313.24,558.404 1406.21,555.873 1499.18,551.503 1592.14,545.571 1651.8,540.908 1685.11,538.369 1778.08,530.167 1853.48,522.792 1871.04,521.096 
  1964.01,511.38 2024.68,504.676 2056.98,501.114 
  "/>
<polyline clip-path="url(#clip9902)" style="stroke:#88216a; stroke-width:4; stroke-opacity:1; fill:none" points="
  2056.98,468.938 1964.01,479.237 1893.73,486.56 1871.04,488.911 1778.08,497.771 1697.11,504.676 1685.11,505.706 1592.14,512.533 1499.18,518.032 1406.21,521.966 
  1369.57,522.792 1313.24,524.09 1220.28,524.088 1171.21,522.792 1127.31,521.637 1034.34,516.424 941.377,508.04 915.03,504.676 848.411,496.134 792.138,486.56 
  755.444,480.241 701.37,468.444 662.477,459.778 627.911,450.328 569.511,433.856 564.648,432.211 513.029,414.095 476.544,400.57 466.019,395.979 427.094,377.863 
  391.451,359.747 383.578,355.289 362.752,341.631 338.797,323.515 319.012,305.399 303.893,287.283 293.954,269.166 290.611,254.818 289.844,251.05 290.611,243.409 
  291.807,232.934 300.763,214.818 317.227,196.702 341.856,178.586 375.341,160.47 383.578,157.007 423.73,142.354 476.544,126.825 486.822,124.238 569.511,107.04 
  574.76,106.121 662.477,93.1971 705.349,88.0053 
  "/>
<polyline clip-path="url(#clip9902)" style="stroke:#6e186e; stroke-width:4; stroke-opacity:1; fill:none" points="
  891.5,88.0053 848.411,91.203 755.444,100.207 706.671,106.121 662.477,112.489 595.339,124.238 569.511,129.713 519.291,142.354 476.544,155.727 463.552,160.47 
  425.049,178.586 396.8,196.702 383.578,209.448 378.733,214.818 369.949,232.934 368.078,251.05 372.526,269.166 382.726,287.283 383.578,288.287 400.35,305.399 
  423.52,323.515 451.548,341.631 476.544,355.645 485.126,359.747 527.352,377.863 569.511,394.419 574.255,395.979 633.09,414.095 662.477,422.667 702.469,432.211 
  755.444,444.339 788.387,450.328 848.411,460.912 904.583,468.444 941.377,473.277 1034.34,481.998 1110.5,486.56 1127.31,487.555 1220.28,490.318 1313.24,490.635 
  1406.21,488.816 1463.19,486.56 1499.18,485.138 1592.14,479.838 1685.11,473.159 1740.88,468.444 1778.08,465.261 1871.04,456.288 1927.57,450.328 1964.01,446.385 
  2056.98,435.631 
  "/>
<polyline clip-path="url(#clip9902)" style="stroke:#550f6d; stroke-width:4; stroke-opacity:1; fill:none" points="
  2056.98,399.839 1964.01,411.645 1943.28,414.095 1871.04,422.204 1778.08,431.702 1772.42,432.211 1685.11,439.799 1592.14,446.612 1527.27,450.328 1499.18,451.905 
  1406.21,455.44 1313.24,457.052 1220.28,456.462 1127.31,453.362 1079.64,450.328 1034.34,447.357 941.377,438.012 899.769,432.211 848.411,424.754 792.191,414.095 
  755.444,406.745 712.505,395.979 662.477,382.538 648.192,377.863 597.348,359.747 569.511,348.667 554.671,341.631 521.458,323.515 493.978,305.399 476.544,290.445 
  473.395,287.283 461.34,269.166 455.951,251.05 457.877,232.934 467.804,214.818 476.544,206.336 488.102,196.702 520.928,178.586 565.787,160.47 569.511,159.305 
  633.766,142.354 662.477,136.267 731.284,124.238 755.444,120.754 848.411,110.021 892.373,106.121 941.377,102.467 1034.34,97.4686 1127.31,94.2534 1220.28,92.6621 
  1313.24,92.5382 1406.21,93.7291 1499.18,96.0864 1592.14,99.4666 1685.11,103.731 1729.25,106.121 1778.08,109.223 1871.04,115.878 1964.01,123.117 1977.46,124.238 
  2056.98,132.119 
  "/>
<polyline clip-path="url(#clip9902)" style="stroke:#6e186e; stroke-width:4; stroke-opacity:1; fill:none" points="
  2056.98,110.828 2001.11,106.121 1964.01,103.448 1871.04,97.175 1778.08,91.4119 1716.23,88.0053 
  "/>
<polyline clip-path="url(#clip9902)" style="stroke:#88216a; stroke-width:4; stroke-opacity:1; fill:none" points="
  1986.35,88.0053 2056.98,93.1624 
  "/>
<polyline clip-path="url(#clip9902)" style="stroke:#3b0963; stroke-width:4; stroke-opacity:1; fill:none" points="
  2056.98,159.27 1964.01,148.213 1911.71,142.354 1871.04,138.623 1778.08,130.814 1690.13,124.238 1685.11,123.923 1592.14,119.022 1499.18,115.153 1406.21,112.482 
  1313.24,111.182 1220.28,111.431 1127.31,113.411 1034.34,117.308 941.377,123.31 930.964,124.238 848.411,133.161 782.908,142.354 755.444,147.16 694.342,160.47 
  662.477,169.456 635.696,178.586 596.921,196.702 571.349,214.818 569.511,217.298 559.698,232.934 557.712,251.05 564.306,269.166 569.511,275.72 580.413,287.283 
  605.891,305.399 638.996,323.515 662.477,334.176 682.402,341.631 738.169,359.747 755.444,364.779 811.53,377.863 848.411,385.753 910.476,395.979 941.377,400.738 
  1034.34,411.152 1074.06,414.095 1127.31,417.842 1220.28,421.38 1313.24,422.242 1406.21,420.741 1499.18,417.166 1552.08,414.095 1592.14,411.664 1685.11,404.352 
  1774.1,395.979 1778.08,395.58 1871.04,384.927 1926.82,377.863 1964.01,372.719 2050.79,359.747 2056.98,358.707 
  "/>
<polyline clip-path="url(#clip9902)" style="stroke:#1f0b46; stroke-width:4; stroke-opacity:1; fill:none" points="
  2056.98,299.786 2039.63,305.399 1964.36,323.515 1964.01,323.583 1871.04,340.379 1863.33,341.631 1778.08,353.572 1727.37,359.747 1685.11,364.36 1592.14,372.777 
  1518.61,377.863 1499.18,379.104 1406.21,382.956 1313.24,384.451 1220.28,383.279 1127.31,379.097 1112.06,377.863 1034.34,371.018 948.981,359.747 941.377,358.628 
  856.675,341.631 848.411,339.722 794.019,323.515 755.444,309.648 745.937,305.399 714.574,287.283 693.468,269.166 683.62,251.05 686.109,232.934 702.091,214.818 
  732.812,196.702 755.444,187.941 785.415,178.586 848.411,164.294 870.172,160.47 941.377,150.827 1027.36,142.354 1034.34,141.803 1127.31,136.978 1220.28,134.46 
  1313.24,134.024 1406.21,135.447 1499.18,138.511 1578.58,142.354 1592.14,143.161 1685.11,150.24 1778.08,158.574 1796.77,160.47 1871.04,170.012 1932.41,178.586 
  1964.01,184.458 2026.02,196.702 2056.98,205.506 
  "/>
<polyline clip-path="url(#clip9902)" style="stroke:#fbaa0f; stroke-width:4; stroke-opacity:1; fill:none" points="
  197.644,544.474 223.243,559.024 254.114,577.14 283.775,595.256 290.611,599.683 315.222,613.372 345.796,631.489 374.182,649.605 383.578,656.225 402.947,667.721 
  430.205,685.837 454.034,703.953 474.105,722.069 476.544,724.876 492.849,740.185 506.856,758.301 515.176,776.417 517.319,794.534 512.76,812.65 500.928,830.766 
  481.201,848.882 476.544,851.938 457.449,866.998 427.316,885.114 389.394,903.23 383.578,905.565 350.484,921.346 305.657,939.462 290.611,944.785 259.772,957.579 
  210.29,975.695 197.644,979.875 
  "/>
<polyline clip-path="url(#clip9902)" style="stroke:#f8c933; stroke-width:4; stroke-opacity:1; fill:none" points="
  197.644,940.283 199.673,939.462 239.469,921.346 273.547,903.23 290.611,892.516 304.33,885.114 331.994,866.998 353.631,848.882 369.58,830.766 380.161,812.65 
  383.578,801.517 386.083,794.534 386.976,776.417 383.578,762.522 382.723,758.301 374.816,740.185 362.997,722.069 347.542,703.953 328.725,685.837 306.82,667.721 
  290.611,655.894 283.247,649.605 259.618,631.489 233.979,613.372 206.575,595.256 197.644,589.699 
  "/>
<polyline clip-path="url(#clip9902)" style="stroke:#f2e763; stroke-width:4; stroke-opacity:1; fill:none" points="
  197.644,644.947 203.542,649.605 223.985,667.721 241.886,685.837 257.009,703.953 269.122,722.069 277.995,740.185 283.401,758.301 285.113,776.417 282.905,794.534 
  276.551,812.65 265.82,830.766 250.483,848.882 230.302,866.998 205.037,885.114 197.644,889.558 
  "/>
<polyline clip-path="url(#clip9902)" style="stroke:#f88c0a; stroke-width:4; stroke-opacity:1; fill:none" points="
  2056.98,1140.58 2053.19,1138.74 2014.11,1120.62 1972.84,1102.51 1964.01,1098.7 1929.66,1084.39 1885.34,1066.28 1871.04,1060.38 1839.92,1048.16 1794.35,1030.04 
  1778.08,1023.33 1748.55,1011.93 1703.64,993.811 1685.11,985.795 1659.63,975.695 1617.68,957.579 1592.14,945.245 1578.69,939.462 1542.77,921.346 1513.2,903.23 
  1499.18,891.491 1490.18,885.114 1475.27,866.998 1472.1,848.882 1482.63,830.766 1499.18,819.191 1507.54,812.65 1545.05,794.534 1592.14,778.657 1598.22,776.417 
  1661.21,758.301 1685.11,752.718 1735.04,740.185 1778.08,731.039 1818.12,722.069 1871.04,711.714 1909.26,703.953 1964.01,694.012 2007.97,685.837 2056.98,677.537 
  
  "/>
<polyline clip-path="url(#clip9902)" style="stroke:#fbaa0f; stroke-width:4; stroke-opacity:1; fill:none" points="
  2056.98,726.837 1999.8,740.185 1964.01,749.837 1932.13,758.301 1874.95,776.417 1871.04,777.935 1827.18,794.534 1790.85,812.65 1778.08,821.649 1764.67,830.766 
  1748.58,848.882 1742.46,866.998 1745.33,885.114 1756.22,903.23 1774.14,921.346 1778.08,924.245 1797.24,939.462 1825.17,957.579 1857.26,975.695 1871.04,982.623 
  1892.12,993.811 1929.17,1011.93 1964.01,1028.13 1967.97,1030.04 2007.45,1048.16 2047.37,1066.28 2056.98,1070.57 
  "/>
<polyline clip-path="url(#clip9902)" style="stroke:#f8c933; stroke-width:4; stroke-opacity:1; fill:none" points="
  2056.98,984.426 2042.69,975.695 2016.9,957.579 1995.33,939.462 1978.76,921.346 1967.96,903.23 1964.01,886.412 1963.69,885.114 1964.01,883.208 1966.73,866.998 
  1977.77,848.882 1997.5,830.766 2026.58,812.65 2056.98,798.454 
  "/>
<polyline clip-path="url(#clip9902)" style="stroke:#0a0622; stroke-width:4; stroke-opacity:1; fill:none" points="
  1592.14,324.33 1499.18,332.526 1406.21,337.754 1313.24,339.657 1220.28,337.834 1127.31,331.84 1054.66,323.515 1034.34,320.717 959.284,305.399 941.377,300.677 
  903.908,287.283 869.64,269.166 853.395,251.05 856.892,232.934 882.031,214.818 930.913,196.702 941.377,194.168 1029.09,178.586 1034.34,177.909 1127.31,169.95 
  1220.28,165.681 1313.24,164.733 1406.21,166.738 1499.18,171.331 1592.14,178.158 1596.67,178.586 1685.11,189.848 1730.66,196.702 1778.08,207.19 1808.64,214.818 
  1849.38,232.934 1860.12,251.05 1842.27,269.166 1797.49,287.283 1778.08,292.356 1720.25,305.399 1685.11,311.42 1599.15,323.515 1592.14,324.33 
  "/>
<polyline clip-path="url(#clip9902)" style="stroke:#ff0000; stroke-width:4; stroke-opacity:1; fill:none" points="
  1401.59,237.474 1316.43,247.431 1309.75,245.261 1308.57,245.399 1308.5,245.376 1308.49,245.378 1308.49,245.378 1308.49,245.378 
  "/>
<polyline clip-path="url(#clip9902)" style="stroke:#ff0000; stroke-width:4; stroke-opacity:1; fill:none" stroke-dasharray="16, 10" points="
  1578.67,294.983 1166.42,196.86 1347.5,278.315 1289.72,217.205 1307.76,260.559 1310.22,239.251 1306.98,249.676 1309.65,242.384 1307.63,247.486 1309.1,243.915 
  1308.05,246.415 1308.79,244.665 1308.27,245.89 1308.63,245.033 1308.38,245.633 1308.56,245.213 1308.43,245.507 1308.52,245.301 1308.46,245.445 1308.5,245.344 
  1308.48,245.393 1308.49,245.369 1308.48,245.381 1308.49,245.375 1308.48,245.379 1308.49,245.377 1308.48,245.378 1308.49,245.377 1308.49,245.378 1308.49,245.377 
  1308.49,245.378 1308.49,245.378 1308.49,245.378 1308.49,245.378 1308.49,245.378 
  "/>
<polyline clip-path="url(#clip9902)" style="stroke:#0000ff; stroke-width:4; stroke-opacity:1; fill:none" points="
  1401.59,237.474 1305.6,244.154 2049.54,1259.48 401.045,1374.26 423.89,1405.44 402.73,1406.91 403.094,1407.41 402.811,1407.43 402.816,1407.43 402.812,1407.44 
  402.812,1407.44 
  "/>
<polyline clip-path="url(#clip9902)" style="stroke:#0000ff; stroke-width:4; stroke-opacity:1; fill:none" stroke-dasharray="16, 10" points="
  1674.33,326.052 1175.85,181.85 1283.09,292.216 1353.78,206.798 1297.69,264.681 1311.13,235.753 1307.27,249.939 1309.38,242.988 1308.02,246.389 1308.8,244.724 
  1308.25,245.89 1308.62,245.074 1308.37,245.645 1308.54,245.245 1308.46,245.441 1308.5,245.345 1308.48,245.392 1308.49,245.369 1308.48,245.385 1308.49,245.374 
  1308.48,245.38 1308.49,245.377 1308.49,245.378 1308.49,245.377 1308.49,245.378 1308.49,245.378 1308.49,245.378 1308.49,245.378 
  "/>
<polyline clip-path="url(#clip9902)" style="stroke:#008000; stroke-width:4; stroke-opacity:1; fill:none" points="
  1401.59,237.474 1307.08,244.844 1308.49,245.378 1308.49,245.378 
  "/>
<polyline clip-path="url(#clip9902)" style="stroke:#008000; stroke-width:4; stroke-opacity:1; fill:none" stroke-dasharray="16, 10" points="
  1080.83,133.296 1179.91,177.426 1238.68,206.226 1271.61,223.773 1289.32,233.83 1298.61,239.331 1303.43,242.25 1305.9,243.771 1307.16,244.555 1307.81,244.957 
  1308.14,245.163 1308.31,245.268 1308.4,245.322 1308.44,245.349 1308.46,245.363 1308.47,245.37 1308.48,245.374 1308.48,245.376 1308.48,245.377 1308.48,245.377 
  1308.48,245.377 1308.49,245.378 1308.49,245.378 1308.49,245.378 1308.49,245.378 
  "/>
<polyline clip-path="url(#clip9902)" style="stroke:#ee82ee; stroke-width:4; stroke-opacity:1; fill:none" points="
  1401.59,237.474 1308.75,245.468 1308.47,245.379 1308.49,245.378 
  "/>
<polyline clip-path="url(#clip9902)" style="stroke:#ee82ee; stroke-width:4; stroke-opacity:1; fill:none" stroke-dasharray="16, 10" points="
  1080.83,133.296 1062.4,236.035 1474.9,241.42 1425.54,242.391 1381.2,243.326 1354.49,243.974 1338.03,244.427 1327.63,244.74 1320.95,244.953 1316.63,245.096 
  1313.81,245.192 1311.98,245.255 1310.78,245.297 1309.99,245.325 1309.47,245.343 1309.13,245.355 1308.91,245.363 1308.76,245.368 1308.67,245.371 1308.61,245.373 
  1308.56,245.375 1308.54,245.376 1308.52,245.376 1308.51,245.377 1308.5,245.377 1308.49,245.377 1308.49,245.377 1308.49,245.378 1308.49,245.378 1308.49,245.378 
  1308.49,245.378 1308.49,245.378 1308.49,245.378 1308.49,245.378 1308.49,245.378 1308.49,245.378 1308.49,245.378 
  "/>
<defs>
  <clipPath id="clip9903">
    <rect x="2160" y="47" width="73" height="1441"/>
  </clipPath>
</defs>
<polyline clip-path="url(#clip9903)" style="stroke:#0b0724; stroke-width:4; stroke-opacity:1; fill:none" points="
  2160.76,1397.46 2232.76,1397.46 
  "/>
<polyline clip-path="url(#clip9903)" style="stroke:#200b49; stroke-width:4; stroke-opacity:1; fill:none" points="
  2160.76,1307.45 2232.76,1307.45 
  "/>
<polyline clip-path="url(#clip9903)" style="stroke:#3c0964; stroke-width:4; stroke-opacity:1; fill:none" points="
  2160.76,1217.43 2232.76,1217.43 
  "/>
<polyline clip-path="url(#clip9903)" style="stroke:#57106d; stroke-width:4; stroke-opacity:1; fill:none" points="
  2160.76,1127.42 2232.76,1127.42 
  "/>
<polyline clip-path="url(#clip9903)" style="stroke:#70196e; stroke-width:4; stroke-opacity:1; fill:none" points="
  2160.76,1037.4 2232.76,1037.4 
  "/>
<polyline clip-path="url(#clip9903)" style="stroke:#8a2269; stroke-width:4; stroke-opacity:1; fill:none" points="
  2160.76,947.388 2232.76,947.388 
  "/>
<polyline clip-path="url(#clip9903)" style="stroke:#a32b61; stroke-width:4; stroke-opacity:1; fill:none" points="
  2160.76,857.374 2232.76,857.374 
  "/>
<polyline clip-path="url(#clip9903)" style="stroke:#bb3754; stroke-width:4; stroke-opacity:1; fill:none" points="
  2160.76,767.359 2232.76,767.359 
  "/>
<polyline clip-path="url(#clip9903)" style="stroke:#d04544; stroke-width:4; stroke-opacity:1; fill:none" points="
  2160.76,677.345 2232.76,677.345 
  "/>
<polyline clip-path="url(#clip9903)" style="stroke:#e25832; stroke-width:4; stroke-opacity:1; fill:none" points="
  2160.76,587.331 2232.76,587.331 
  "/>
<polyline clip-path="url(#clip9903)" style="stroke:#f0711e; stroke-width:4; stroke-opacity:1; fill:none" points="
  2160.76,497.316 2232.76,497.316 
  "/>
<polyline clip-path="url(#clip9903)" style="stroke:#f88c0a; stroke-width:4; stroke-opacity:1; fill:none" points="
  2160.76,407.302 2232.76,407.302 
  "/>
<polyline clip-path="url(#clip9903)" style="stroke:#fbaa0f; stroke-width:4; stroke-opacity:1; fill:none" points="
  2160.76,317.287 2232.76,317.287 
  "/>
<polyline clip-path="url(#clip9903)" style="stroke:#f8c933; stroke-width:4; stroke-opacity:1; fill:none" points="
  2160.76,227.273 2232.76,227.273 
  "/>
<polyline clip-path="url(#clip9903)" style="stroke:#f2e763; stroke-width:4; stroke-opacity:1; fill:none" points="
  2160.76,137.259 2232.76,137.259 
  "/>
<g clip-path="url(#clip9900)">
<text style="fill:#000000; fill-opacity:1; font-family:Arial,Helvetica Neue,Helvetica,sans-serif; font-size:48px; text-anchor:start;" transform="rotate(0, 2268.76, 1256.68)" x="2268.76" y="1256.68">25</text>
</g>
<g clip-path="url(#clip9900)">
<text style="fill:#000000; fill-opacity:1; font-family:Arial,Helvetica Neue,Helvetica,sans-serif; font-size:48px; text-anchor:start;" transform="rotate(0, 2268.76, 1011.97)" x="2268.76" y="1011.97">50</text>
</g>
<g clip-path="url(#clip9900)">
<text style="fill:#000000; fill-opacity:1; font-family:Arial,Helvetica Neue,Helvetica,sans-serif; font-size:48px; text-anchor:start;" transform="rotate(0, 2268.76, 767.254)" x="2268.76" y="767.254">75</text>
</g>
<g clip-path="url(#clip9900)">
<text style="fill:#000000; fill-opacity:1; font-family:Arial,Helvetica Neue,Helvetica,sans-serif; font-size:48px; text-anchor:start;" transform="rotate(0, 2268.76, 522.54)" x="2268.76" y="522.54">100</text>
</g>
<g clip-path="url(#clip9900)">
<text style="fill:#000000; fill-opacity:1; font-family:Arial,Helvetica Neue,Helvetica,sans-serif; font-size:48px; text-anchor:start;" transform="rotate(0, 2268.76, 277.826)" x="2268.76" y="277.826">125</text>
</g>
<polyline clip-path="url(#clip9900)" style="stroke:#000000; stroke-width:4; stroke-opacity:1; fill:none" points="
  2232.76,1487.47 2232.76,1243.03 2256.76,1243.03 2232.76,1243.03 2232.76,998.317 2256.76,998.317 2232.76,998.317 2232.76,753.603 2256.76,753.603 2232.76,753.603 
  2232.76,508.889 2256.76,508.889 2232.76,508.889 2232.76,264.174 2256.76,264.174 2232.76,264.174 2232.76,47.2441 
  "/>
<path clip-path="url(#clip9900)" d="
M213.865 675.084 L893.951 675.084 L893.951 130.764 L213.865 130.764  Z
  " fill="#ffffff" fill-rule="evenodd" fill-opacity="1"/>
<polyline clip-path="url(#clip9900)" style="stroke:#000000; stroke-width:4; stroke-opacity:1; fill:none" points="
  213.865,675.084 893.951,675.084 893.951,130.764 213.865,130.764 213.865,675.084 
  "/>
<polyline clip-path="url(#clip9900)" style="stroke:#ff0000; stroke-width:4; stroke-opacity:1; fill:none" points="
  237.865,191.244 381.865,191.244 
  "/>
<g clip-path="url(#clip9900)">
<text style="fill:#000000; fill-opacity:1; font-family:Arial,Helvetica Neue,Helvetica,sans-serif; font-size:48px; text-anchor:start;" transform="rotate(0, 405.865, 208.744)" x="405.865" y="208.744">Gradient - Golden</text>
</g>
<polyline clip-path="url(#clip9900)" style="stroke:#ff0000; stroke-width:4; stroke-opacity:1; fill:none" stroke-dasharray="16, 10" points="
  237.865,251.724 381.865,251.724 
  "/>
<g clip-path="url(#clip9900)">
<text style="fill:#000000; fill-opacity:1; font-family:Arial,Helvetica Neue,Helvetica,sans-serif; font-size:48px; text-anchor:start;" transform="rotate(0, 405.865, 269.224)" x="405.865" y="269.224">Gradient - Armijo</text>
</g>
<polyline clip-path="url(#clip9900)" style="stroke:#0000ff; stroke-width:4; stroke-opacity:1; fill:none" points="
  237.865,312.204 381.865,312.204 
  "/>
<g clip-path="url(#clip9900)">
<text style="fill:#000000; fill-opacity:1; font-family:Arial,Helvetica Neue,Helvetica,sans-serif; font-size:48px; text-anchor:start;" transform="rotate(0, 405.865, 329.704)" x="405.865" y="329.704">Heavy Ball - Golden</text>
</g>
<polyline clip-path="url(#clip9900)" style="stroke:#0000ff; stroke-width:4; stroke-opacity:1; fill:none" stroke-dasharray="16, 10" points="
  237.865,372.684 381.865,372.684 
  "/>
<g clip-path="url(#clip9900)">
<text style="fill:#000000; fill-opacity:1; font-family:Arial,Helvetica Neue,Helvetica,sans-serif; font-size:48px; text-anchor:start;" transform="rotate(0, 405.865, 390.184)" x="405.865" y="390.184">Heavy Ball - Armijo</text>
</g>
<polyline clip-path="url(#clip9900)" style="stroke:#008000; stroke-width:4; stroke-opacity:1; fill:none" points="
  237.865,433.164 381.865,433.164 
  "/>
<g clip-path="url(#clip9900)">
<text style="fill:#000000; fill-opacity:1; font-family:Arial,Helvetica Neue,Helvetica,sans-serif; font-size:48px; text-anchor:start;" transform="rotate(0, 405.865, 450.664)" x="405.865" y="450.664">Newton - Golden</text>
</g>
<polyline clip-path="url(#clip9900)" style="stroke:#008000; stroke-width:4; stroke-opacity:1; fill:none" stroke-dasharray="16, 10" points="
  237.865,493.644 381.865,493.644 
  "/>
<g clip-path="url(#clip9900)">
<text style="fill:#000000; fill-opacity:1; font-family:Arial,Helvetica Neue,Helvetica,sans-serif; font-size:48px; text-anchor:start;" transform="rotate(0, 405.865, 511.144)" x="405.865" y="511.144">Newton - Armijo</text>
</g>
<polyline clip-path="url(#clip9900)" style="stroke:#ee82ee; stroke-width:4; stroke-opacity:1; fill:none" points="
  237.865,554.124 381.865,554.124 
  "/>
<g clip-path="url(#clip9900)">
<text style="fill:#000000; fill-opacity:1; font-family:Arial,Helvetica Neue,Helvetica,sans-serif; font-size:48px; text-anchor:start;" transform="rotate(0, 405.865, 571.624)" x="405.865" y="571.624">BFGS - Golden</text>
</g>
<polyline clip-path="url(#clip9900)" style="stroke:#ee82ee; stroke-width:4; stroke-opacity:1; fill:none" stroke-dasharray="16, 10" points="
  237.865,614.604 381.865,614.604 
  "/>
<g clip-path="url(#clip9900)">
<text style="fill:#000000; fill-opacity:1; font-family:Arial,Helvetica Neue,Helvetica,sans-serif; font-size:48px; text-anchor:start;" transform="rotate(0, 405.865, 632.104)" x="405.865" y="632.104">BFGS - Armijo</text>
</g>
</svg>
