<?xml version="1.0" encoding="utf-8"?>
<svg xmlns="http://www.w3.org/2000/svg" xmlns:xlink="http://www.w3.org/1999/xlink" width="600" height="400" viewBox="0 0 2400 1600">
<defs>
  <clipPath id="clip9100">
    <rect x="0" y="0" width="2400" height="1600"/>
  </clipPath>
</defs>
<path clip-path="url(#clip9100)" d="
M0 1600 L2400 1600 L2400 0 L0 0  Z
  " fill="#ffffff" fill-rule="evenodd" fill-opacity="1"/>
<defs>
  <clipPath id="clip9101">
    <rect x="480" y="0" width="1681" height="1600"/>
  </clipPath>
</defs>
<path clip-path="url(#clip9100)" d="
M182.008 1487.47 L2112.76 1487.47 L2112.76 47.2441 L182.008 47.2441  Z
  " fill="#ffffff" fill-rule="evenodd" fill-opacity="1"/>
<defs>
  <clipPath id="clip9102">
    <rect x="182" y="47" width="1932" height="1441"/>
  </clipPath>
</defs>
<polyline clip-path="url(#clip9102)" style="stroke:#000000; stroke-width:2; stroke-opacity:0.1; fill:none" points="
  561.558,1487.47 561.558,47.2441 
  "/>
<polyline clip-path="url(#clip9102)" style="stroke:#000000; stroke-width:2; stroke-opacity:0.1; fill:none" points="
  989.145,1487.47 989.145,47.2441 
  "/>
<polyline clip-path="url(#clip9102)" style="stroke:#000000; stroke-width:2; stroke-opacity:0.1; fill:none" points="
  1416.73,1487.47 1416.73,47.2441 
  "/>
<polyline clip-path="url(#clip9102)" style="stroke:#000000; stroke-width:2; stroke-opacity:0.1; fill:none" points="
  1844.32,1487.47 1844.32,47.2441 
  "/>
<polyline clip-path="url(#clip9102)" style="stroke:#000000; stroke-width:2; stroke-opacity:0.1; fill:none" points="
  182.008,1446.71 2112.76,1446.71 
  "/>
<polyline clip-path="url(#clip9102)" style="stroke:#000000; stroke-width:2; stroke-opacity:0.1; fill:none" points="
  182.008,1107.04 2112.76,1107.04 
  "/>
<polyline clip-path="url(#clip9102)" style="stroke:#000000; stroke-width:2; stroke-opacity:0.1; fill:none" points="
  182.008,767.359 2112.76,767.359 
  "/>
<polyline clip-path="url(#clip9102)" style="stroke:#000000; stroke-width:2; stroke-opacity:0.1; fill:none" points="
  182.008,427.682 2112.76,427.682 
  "/>
<polyline clip-path="url(#clip9102)" style="stroke:#000000; stroke-width:2; stroke-opacity:0.1; fill:none" points="
  182.008,88.0053 2112.76,88.0053 
  "/>
<polyline clip-path="url(#clip9100)" style="stroke:#000000; stroke-width:4; stroke-opacity:1; fill:none" points="
  182.008,1487.47 2112.76,1487.47 
  "/>
<polyline clip-path="url(#clip9100)" style="stroke:#000000; stroke-width:4; stroke-opacity:1; fill:none" points="
  182.008,1487.47 182.008,47.2441 
  "/>
<polyline clip-path="url(#clip9100)" style="stroke:#000000; stroke-width:4; stroke-opacity:1; fill:none" points="
  561.558,1487.47 561.558,1465.87 
  "/>
<polyline clip-path="url(#clip9100)" style="stroke:#000000; stroke-width:4; stroke-opacity:1; fill:none" points="
  989.145,1487.47 989.145,1465.87 
  "/>
<polyline clip-path="url(#clip9100)" style="stroke:#000000; stroke-width:4; stroke-opacity:1; fill:none" points="
  1416.73,1487.47 1416.73,1465.87 
  "/>
<polyline clip-path="url(#clip9100)" style="stroke:#000000; stroke-width:4; stroke-opacity:1; fill:none" points="
  1844.32,1487.47 1844.32,1465.87 
  "/>
<polyline clip-path="url(#clip9100)" style="stroke:#000000; stroke-width:4; stroke-opacity:1; fill:none" points="
  182.008,1446.71 210.969,1446.71 
  "/>
<polyline clip-path="url(#clip9100)" style="stroke:#000000; stroke-width:4; stroke-opacity:1; fill:none" points="
  182.008,1107.04 210.969,1107.04 
  "/>
<polyline clip-path="url(#clip9100)" style="stroke:#000000; stroke-width:4; stroke-opacity:1; fill:none" points="
  182.008,767.359 210.969,767.359 
  "/>
<polyline clip-path="url(#clip9100)" style="stroke:#000000; stroke-width:4; stroke-opacity:1; fill:none" points="
  182.008,427.682 210.969,427.682 
  "/>
<polyline clip-path="url(#clip9100)" style="stroke:#000000; stroke-width:4; stroke-opacity:1; fill:none" points="
  182.008,88.0053 210.969,88.0053 
  "/>
<g clip-path="url(#clip9100)">
<text style="fill:#000000; fill-opacity:1; font-family:Arial,Helvetica Neue,Helvetica,sans-serif; font-size:48px; text-anchor:middle;" transform="rotate(0, 561.558, 1541.47)" x="561.558" y="1541.47">-1</text>
</g>
<g clip-path="url(#clip9100)">
<text style="fill:#000000; fill-opacity:1; font-family:Arial,Helvetica Neue,Helvetica,sans-serif; font-size:48px; text-anchor:middle;" transform="rotate(0, 989.145, 1541.47)" x="989.145" y="1541.47">0</text>
</g>
<g clip-path="url(#clip9100)">
<text style="fill:#000000; fill-opacity:1; font-family:Arial,Helvetica Neue,Helvetica,sans-serif; font-size:48px; text-anchor:middle;" transform="rotate(0, 1416.73, 1541.47)" x="1416.73" y="1541.47">1</text>
</g>
<g clip-path="url(#clip9100)">
<text style="fill:#000000; fill-opacity:1; font-family:Arial,Helvetica Neue,Helvetica,sans-serif; font-size:48px; text-anchor:middle;" transform="rotate(0, 1844.32, 1541.47)" x="1844.32" y="1541.47">2</text>
</g>
<g clip-path="url(#clip9100)">
<text style="fill:#000000; fill-opacity:1; font-family:Arial,Helvetica Neue,Helvetica,sans-serif; font-size:48px; text-anchor:end;" transform="rotate(0, 158.008, 1464.21)" x="158.008" y="1464.21">-0.5</text>
</g>
<g clip-path="url(#clip9100)">
<text style="fill:#000000; fill-opacity:1; font-family:Arial,Helvetica Neue,Helvetica,sans-serif; font-size:48px; text-anchor:end;" transform="rotate(0, 158.008, 1124.54)" x="158.008" y="1124.54">0.0</text>
</g>
<g clip-path="url(#clip9100)">
<text style="fill:#000000; fill-opacity:1; font-family:Arial,Helvetica Neue,Helvetica,sans-serif; font-size:48px; text-anchor:end;" transform="rotate(0, 158.008, 784.859)" x="158.008" y="784.859">0.5</text>
</g>
<g clip-path="url(#clip9100)">
<text style="fill:#000000; fill-opacity:1; font-family:Arial,Helvetica Neue,Helvetica,sans-serif; font-size:48px; text-anchor:end;" transform="rotate(0, 158.008, 445.182)" x="158.008" y="445.182">1.0</text>
</g>
<g clip-path="url(#clip9100)">
<text style="fill:#000000; fill-opacity:1; font-family:Arial,Helvetica Neue,Helvetica,sans-serif; font-size:48px; text-anchor:end;" transform="rotate(0, 158.008, 105.505)" x="158.008" y="105.505">1.5</text>
</g>
<polyline clip-path="url(#clip9102)" style="stroke:#000003; stroke-width:4; stroke-opacity:1; fill:none" points="
  355.547,1446.71 347.764,1430.55 
  "/>
<polyline clip-path="url(#clip9102)" style="stroke:#000003; stroke-width:4; stroke-opacity:1; fill:none" points="
  550.054,1446.71 518.799,1430.03 476.041,1393.53 463.694,1378.78 433.282,1321.16 428.991,1310.84 411.371,1242.91 402.005,1174.97 399.062,1107.04 402.005,1039.1 
  411.371,971.166 428.991,903.23 433.282,892.908 463.694,835.295 476.041,820.545 518.799,784.043 550.054,767.359 561.558,763.373 604.317,755.271 647.075,753.129 
  689.834,755.438 732.593,761.006 766.356,767.359 775.351,769.494 818.11,782.687 860.869,797.285 903.627,812.672 946.386,828.378 964.212,835.295 989.145,847.856 
  1031.9,869.917 1074.66,891.283 1098.56,903.23 1117.42,916.244 1160.18,945.938 1198.24,971.166 1202.94,976.142 1245.7,1022.68 1260.84,1039.1 1282.98,1107.04 
  1260.84,1174.97 1245.7,1191.39 1202.94,1237.93 1198.24,1242.91 1160.18,1268.13 1117.42,1297.83 1098.56,1310.84 1074.66,1322.79 1031.9,1344.16 989.145,1366.22 
  964.212,1378.78 946.386,1385.69 903.627,1401.4 860.869,1416.79 818.11,1431.39 775.351,1444.58 766.356,1446.71 
  "/>
<polyline clip-path="url(#clip9102)" style="stroke:#000003; stroke-width:4; stroke-opacity:1; fill:none" points="
  960.326,1446.71 989.145,1432.24 1031.9,1410.94 1074.66,1390.69 1100.29,1378.78 1117.42,1368.44 1160.18,1342.67 1202.94,1318.59 1216.75,1310.84 1245.7,1288.46 
  1288.46,1256.73 1307.53,1242.91 1331.21,1215.46 1366.81,1174.97 1373.97,1152.17 1387.21,1107.04 1373.97,1061.9 1366.81,1039.1 1331.21,998.612 1307.53,971.166 
  1288.46,957.345 1245.7,925.617 1216.75,903.23 1202.94,895.487 1160.18,871.401 1117.42,845.634 1100.29,835.295 1074.66,823.378 1031.9,803.131 989.145,781.835 
  960.326,767.359 946.386,761.807 903.627,745.35 860.869,728.576 818.11,711.765 785.288,699.424 775.351,696.417 732.593,685.038 689.834,674.754 647.075,666.188 
  604.317,660.139 561.558,657.63 518.799,659.958 476.041,668.759 433.282,686.095 412.184,699.424 390.523,720.192 355.547,767.359 347.764,783.525 
  "/>
<polyline clip-path="url(#clip9102)" style="stroke:#000003; stroke-width:4; stroke-opacity:1; fill:none" points="
  347.764,593.258 390.523,574.275 433.282,564.638 450.442,563.553 476.041,562.474 497.758,563.553 518.799,564.837 561.558,571.46 604.317,580.839 647.075,592.1 
  689.834,604.56 732.593,617.692 775.351,631.097 776.486,631.489 818.11,649.179 860.869,667.058 903.627,684.374 942.018,699.424 946.386,701.552 989.145,723.224 
  1031.9,743.692 1074.66,762.914 1084.46,767.359 1117.42,786.207 1160.18,809.522 1202.94,831.156 1211.1,835.295 1245.7,858.075 1288.46,884.576 1320.35,903.23 
  1331.21,911.996 1373.97,946.192 1407.29,971.166 1416.73,982.477 1459.49,1033.27 1464.41,1039.1 1484.05,1107.04 1464.41,1174.97 1459.49,1180.8 1416.73,1231.6 
  1407.29,1242.91 1373.97,1267.88 1331.21,1302.08 1320.35,1310.84 1288.46,1329.5 1245.7,1356 1211.1,1378.78 1202.94,1382.92 1160.18,1404.55 1117.42,1427.87 
  1084.46,1446.71 
  "/>
<polyline clip-path="url(#clip9102)" style="stroke:#000005; stroke-width:4; stroke-opacity:1; fill:none" points="
  1190.43,1446.71 1202.94,1439.21 1245.7,1413.84 1288.46,1390.52 1310.86,1378.78 1331.21,1364.93 1373.97,1336.81 1416.73,1311.08 1417.13,1310.84 1459.49,1275.36 
  1501.84,1242.91 1502.25,1242.41 1545.01,1189.66 1557.18,1174.97 1576.83,1107.04 1557.18,1039.1 1545.01,1024.41 1502.25,971.661 1501.84,971.166 1459.49,938.717 
  1417.13,903.23 1416.73,902.991 1373.97,877.262 1331.21,849.141 1310.86,835.295 1288.46,823.552 1245.7,800.234 1202.94,774.862 1190.43,767.359 1160.18,752.973 
  1117.42,731.549 1074.66,708.393 1058.3,699.424 1031.9,687.782 989.145,668.261 946.386,647.378 914.979,631.489 903.627,626.83 860.869,609.549 818.11,591.373 
  775.351,572.413 754.938,563.553 732.593,555.653 689.834,540.946 647.075,526.206 604.317,511.765 561.558,498.064 552.411,495.618 518.799,488.278 476.041,480.658 
  433.282,475.278 390.523,473.046 347.764,475.116 
  "/>
<polyline clip-path="url(#clip9102)" style="stroke:#000005; stroke-width:4; stroke-opacity:1; fill:none" points="
  347.764,384.289 390.523,390.226 433.282,398.634 476.041,408.728 518.799,419.898 546.101,427.682 561.558,433.074 604.317,449.319 647.075,465.529 689.834,481.432 
  728.891,495.618 732.593,497.264 775.351,517.251 818.11,536.254 860.869,554.2 883.536,563.553 903.627,573.73 946.386,595.104 989.145,615.004 1026.89,631.489 
  1031.9,634.186 1074.66,657.461 1117.42,678.939 1160.18,698.716 1161.69,699.424 1202.94,723.41 1245.7,746.309 1288.46,767.287 1288.6,767.359 1331.21,794.008 
  1373.97,818.454 1405.43,835.295 1416.73,843.153 1459.49,872.36 1502.25,898.977 1509.15,903.23 1545.01,933.706 1587.77,967.344 1592.66,971.166 1630.53,1018.48 
  1647.43,1039.1 1667.08,1107.04 1647.43,1174.97 1630.53,1195.6 1592.66,1242.91 1587.77,1246.73 1545.01,1280.37 1509.15,1310.84 1502.25,1315.1 1459.49,1341.71 
  1416.73,1370.92 1405.43,1378.78 1373.97,1395.62 1331.21,1420.06 1288.6,1446.71 
  "/>
<polyline clip-path="url(#clip9102)" style="stroke:#010007; stroke-width:4; stroke-opacity:1; fill:none" points="
  1381.37,1446.71 1416.73,1424.24 1459.49,1399.04 1496.8,1378.78 1502.25,1374.93 1545.01,1345 1587.77,1317.79 1598.93,1310.84 1630.53,1283.73 1673.28,1249.48 
  1681.63,1242.91 1716.04,1199.57 1736.07,1174.97 1755.71,1107.04 1736.07,1039.1 1716.04,1014.5 1681.63,971.166 1673.28,964.593 1630.53,930.347 1598.93,903.23 
  1587.77,896.287 1545.01,869.073 1502.25,839.139 1496.8,835.295 1459.49,815.038 1416.73,789.835 1381.37,767.359 1373.97,763.629 1331.21,741.842 1288.46,717.954 
  1257.31,699.424 1245.7,693.863 1202.94,673.011 1160.18,650.221 1127.21,631.489 1117.42,626.978 1074.66,607.077 1031.9,585.421 991.877,563.553 989.145,562.337 
  946.386,543.553 903.627,523.249 860.869,501.367 849.598,495.618 818.11,482.502 775.351,463.927 732.593,444.148 698.278,427.682 689.834,424.37 647.075,408.076 
  604.317,391.08 561.558,373.531 527.874,359.747 518.799,356.709 476.041,343.44 433.282,330.44 390.523,318.106 347.764,306.96 
  "/>
<polyline clip-path="url(#clip9102)" style="stroke:#010007; stroke-width:4; stroke-opacity:1; fill:none" points="
  347.764,238.857 390.523,253.217 433.282,267.876 476.041,282.502 502.793,291.812 518.799,298.618 561.558,317.386 604.317,335.378 647.075,352.485 665.242,359.747 
  689.834,371.763 732.593,392.261 775.351,411.421 813.969,427.682 818.11,429.816 860.869,452.193 903.627,472.895 946.386,492 954.502,495.618 989.145,514.533 
  1031.9,536.416 1074.66,556.494 1090.07,563.553 1117.42,578.931 1160.18,601.763 1202.94,622.628 1221.77,631.489 1245.7,645.368 1288.46,669.038 1331.21,690.61 
  1349.35,699.424 1373.97,714.296 1416.73,738.847 1459.49,761.178 1471.62,767.359 1502.25,787.038 1545.01,812.747 1586.15,835.295 1587.77,836.449 1630.53,866.871 
  1673.28,894.483 1687.26,903.23 1716.04,928.095 1758.8,962.75 1769.43,971.166 1801.56,1011.83 1823.65,1039.1 1843.28,1107.04 1823.65,1174.97 1801.56,1202.24 
  1769.43,1242.91 1758.8,1251.32 1716.04,1285.98 1687.26,1310.84 1673.28,1319.59 1630.53,1347.2 1587.77,1377.62 1586.15,1378.78 1545.01,1401.33 1502.25,1427.04 
  1471.62,1446.71 
  "/>
<polyline clip-path="url(#clip9102)" style="stroke:#010109; stroke-width:4; stroke-opacity:1; fill:none" points="
  1560.26,1446.71 1587.77,1428.91 1630.53,1402.86 1673.28,1379.23 1674.1,1378.78 1716.04,1348.68 1758.8,1320.8 1774.64,1310.84 1801.56,1287.49 1844.32,1252.56 
  1856.47,1242.91 1887.08,1204.03 1910.54,1174.97 1929.84,1108.14 1930.14,1107.04 1929.84,1105.93 1910.54,1039.1 1887.08,1010.04 1856.47,971.166 1844.32,961.514 
  1801.56,926.586 1774.64,903.23 1758.8,893.274 1716.04,865.394 1674.1,835.295 1673.28,834.842 1630.53,811.212 1587.77,785.162 1560.26,767.359 1545.01,759.534 
  1502.25,736.84 1459.49,711.845 1439.13,699.424 1416.73,688.429 1373.97,666.375 1331.21,642.115 1313.14,631.489 1288.46,619.711 1245.7,598.201 1202.94,574.58 
  1183.69,563.553 1160.18,552.577 1117.42,531.632 1074.66,508.689 1051.34,495.618 1031.9,486.727 989.145,466.455 946.386,444.327 915.981,427.682 903.627,422.154 
  860.869,402.742 818.11,381.659 776.937,359.747 775.351,359.057 732.593,340.779 689.834,321.08 647.075,299.922 630.758,291.812 604.317,281.056 561.558,263.209 
  518.799,244.312 476.041,224.437 474.767,223.876 433.282,208.936 390.523,193.081 347.764,176.921 
  "/>
<polyline clip-path="url(#clip9102)" style="stroke:#02010b; stroke-width:4; stroke-opacity:1; fill:none" points="
  347.764,118.962 390.523,135.93 433.282,152.196 442.87,155.941 476.041,171.765 518.799,191.484 561.558,210.003 595.126,223.876 604.317,228.517 647.075,250.277 
  689.834,270.469 732.593,289.149 738.659,291.812 775.351,311.495 818.11,332.931 860.869,352.632 876.692,359.747 903.627,374.553 946.386,396.923 989.145,417.39 
  1011.61,427.682 1031.9,439.055 1074.66,462.139 1117.42,483.193 1144.12,495.618 1160.18,504.773 1202.94,528.426 1245.7,549.952 1274.48,563.553 1288.46,571.664 
  1331.21,595.813 1373.97,617.756 1402.5,631.489 1416.73,639.934 1459.49,664.589 1502.25,686.967 1527.46,699.424 1545.01,710.202 1587.77,735.495 1630.53,758.433 
  1647.84,767.359 1673.28,783.905 1716.04,810.183 1758.8,833.999 1761.14,835.295 1801.56,864.404 1844.32,892.464 1861.39,903.23 1887.08,925.574 1929.84,960.686 
  1943,971.166 1972.59,1008.85 1996.97,1039.1 2015.35,1102.9 2016.48,1107.04 2015.35,1111.17 1996.97,1174.97 1972.59,1205.23 1943,1242.91 1929.84,1253.39 
  1887.08,1288.5 1861.39,1310.84 1844.32,1321.61 1801.56,1349.67 1761.14,1378.78 1758.8,1380.07 1716.04,1403.89 1673.28,1430.17 1647.84,1446.71 
  "/>
<polyline clip-path="url(#clip9102)" style="stroke:#02010d; stroke-width:4; stroke-opacity:1; fill:none" points="
  1734.73,1446.71 1758.8,1431.01 1801.56,1404.58 1844.32,1380.64 1847.66,1378.78 1887.08,1350.33 1929.84,1322.15 1947.74,1310.84 1972.59,1289.18 2015.35,1253.94 
  2029.19,1242.91 2058.11,1206.03 
  "/>
<polyline clip-path="url(#clip9102)" style="stroke:#030211; stroke-width:4; stroke-opacity:1; fill:none" points="
  2058.11,1289.63 2033.81,1310.84 2015.35,1322.52 1972.59,1350.78 1933.86,1378.78 1929.84,1381.02 1887.08,1405.04 1844.32,1431.57 1821.16,1446.71 
  "/>
<polyline clip-path="url(#clip9102)" style="stroke:#030312; stroke-width:4; stroke-opacity:1; fill:none" points="
  1907.29,1446.71 1929.84,1431.95 1972.59,1405.35 2015.35,1381.27 2019.83,1378.78 2058.11,1351.08 
  "/>
<polyline clip-path="url(#clip9102)" style="stroke:#050417; stroke-width:4; stroke-opacity:1; fill:none" points="
  2058.11,1405.56 2015.35,1432.21 1993.22,1446.71 
  "/>
<polyline clip-path="url(#clip9102)" style="stroke:#02010d; stroke-width:4; stroke-opacity:1; fill:none" points="
  2058.11,1008.04 2029.19,971.166 2015.35,960.131 1972.59,924.896 1947.74,903.23 1929.84,891.92 1887.08,863.741 1847.66,835.295 1844.32,833.435 1801.56,809.493 
  1758.8,783.063 1734.73,767.359 1716.04,757.695 1673.28,734.593 1630.53,709.1 1614.84,699.424 1587.77,685.988 1545.01,663.392 1502.25,638.472 1490.55,631.489 
  1459.49,616.446 1416.73,594.213 1373.97,569.709 1363.45,563.553 1331.21,548.192 1288.46,526.276 1245.7,502.147 1234.37,495.618 1202.94,480.824 1160.18,459.245 
  1117.42,435.52 1103.65,427.682 1074.66,414.197 1031.9,393.023 989.145,369.79 971.256,359.747 946.386,348.325 903.627,327.671 860.869,305.071 836.86,291.812 
  818.11,283.338 775.351,263.371 732.593,241.609 699.789,223.876 689.834,219.472 647.075,200.425 604.317,179.785 561.558,157.476 558.56,155.941 518.799,139.269 
  476.041,120.141 433.282,99.6769 409.319,88.0053 
  "/>
<polyline clip-path="url(#clip9102)" style="stroke:#030211; stroke-width:4; stroke-opacity:1; fill:none" points="
  520.94,88.0053 561.558,109.557 604.317,130.604 647.075,149.984 660.441,155.941 689.834,171.944 732.593,194.005 775.351,214.215 796.623,223.876 818.11,235.798 
  860.869,258.614 903.627,279.443 930.481,291.812 946.386,300.764 989.145,324.145 1031.9,345.438 1062.63,359.747 1074.66,366.597 1117.42,390.409 1160.18,412.057 
  1193.43,427.682 1202.94,433.151 1245.7,457.305 1288.46,479.236 1323,495.618 1331.21,500.387 1373.97,524.835 1416.73,547.012 1451.25,563.553 1459.49,568.399 
  1502.25,593.14 1545.01,615.568 1577.75,631.489 1587.77,637.493 1630.53,662.59 1673.28,685.331 1701.59,699.424 1716.04,708.362 1758.8,733.988 1801.56,757.2 
  1821.16,767.359 1844.32,782.498 1887.08,809.03 1929.84,833.056 1933.86,835.295 1972.59,863.296 2015.35,891.556 2033.81,903.23 2058.11,924.442 
  "/>
<polyline clip-path="url(#clip9102)" style="stroke:#030312; stroke-width:4; stroke-opacity:1; fill:none" points="
  2058.11,862.998 2019.83,835.295 2015.35,832.802 1972.59,808.72 1929.84,782.119 1907.29,767.359 1887.08,756.868 1844.32,733.583 1801.56,707.867 1787.94,699.424 
  1758.8,684.891 1716.04,662.053 1673.28,636.836 1664.39,631.489 1630.53,614.979 1587.77,592.421 1545.01,567.521 1538.29,563.553 1502.25,546.222 1459.49,523.869 
  1416.73,499.208 1410.58,495.618 1373.97,478.172 1331.21,456.005 1288.46,431.563 1281.75,427.682 1245.7,410.622 1202.94,388.657 1160.18,364.456 1151.98,359.747 
  1117.42,343.503 1074.66,321.782 1031.9,297.877 1021.26,291.812 989.145,276.832 946.386,255.425 903.627,231.903 889.406,223.876 860.869,210.692 818.11,189.701 
  775.351,166.687 756.071,155.941 732.593,145.228 689.834,124.795 647.075,102.463 620.696,88.0053 
  "/>
<polyline clip-path="url(#clip9102)" style="stroke:#050417; stroke-width:4; stroke-opacity:1; fill:none" points="
  715.26,88.0053 732.593,97.7069 775.351,120.902 818.11,142.04 848.108,155.941 860.869,163.164 903.627,186.816 946.386,208.33 979.657,223.876 989.145,229.292 
  1031.9,253.287 1074.66,275.082 1110.23,291.812 1117.42,295.942 1160.18,320.197 1202.94,342.206 1240.03,359.747 1245.7,363.021 1288.46,387.482 1331.21,409.66 
  1369.13,427.682 1373.97,430.499 1416.73,455.134 1459.49,477.458 1497.47,495.618 1502.25,498.417 1545.01,523.222 1587.77,545.692 1624.82,563.553 1630.53,566.932 
  1673.28,591.938 1716.04,614.584 1750.65,631.489 1758.8,636.396 1801.56,661.692 1844.32,684.595 1874.01,699.424 1887.08,707.535 1929.84,733.311 1972.59,756.645 
  1993.22,767.359 2015.35,781.866 2058.11,808.513 
  "/>
<polyline clip-path="url(#clip9102)" style="stroke:#08051e; stroke-width:4; stroke-opacity:1; fill:none" points="
  2058.11,756.496 2015.35,733.129 1972.59,707.312 1959.89,699.424 1929.84,684.398 1887.08,661.451 1844.32,636.1 1836.67,631.489 1801.56,614.32 1758.8,591.615 
  1716.04,566.537 1711.01,563.553 1673.28,545.336 1630.53,522.788 1587.77,497.887 1583.9,495.618 1545.01,476.98 1502.25,454.549 1459.49,429.785 1455.88,427.682 
  1416.73,409.016 1373.97,386.695 1331.21,362.06 1327.23,359.747 1288.46,341.337 1245.7,319.135 1202.94,294.645 1198.04,291.812 1160.18,273.909 1117.42,251.854 
  1074.66,227.542 1068.29,223.876 1031.9,206.747 989.145,184.883 946.386,160.802 937.885,155.941 903.627,139.904 860.869,118.292 818.11,94.5192 806.634,88.0053 
  
  "/>
<polyline clip-path="url(#clip9102)" style="stroke:#0b0724; stroke-width:4; stroke-opacity:1; fill:none" points="
  895.986,88.0053 903.627,92.3824 946.386,116.542 989.145,138.471 1026.21,155.941 1031.9,159.219 1074.66,183.586 1117.42,205.685 1155.87,223.876 1160.18,226.369 
  1202.94,250.894 1245.7,273.122 1285.07,291.812 1288.46,293.775 1331.21,318.424 1373.97,340.754 1413.87,359.747 1416.73,361.415 1459.49,386.167 1502.25,408.584 
  1542.23,427.682 1545.01,429.307 1587.77,454.158 1630.53,476.659 1670.03,495.618 1673.28,497.531 1716.04,522.497 1758.8,545.098 1796.98,563.553 1801.56,566.272 
  1844.32,591.399 1887.08,614.142 1922.52,631.489 1929.84,635.903 1972.59,661.289 2015.35,684.265 2045.66,699.424 2058.11,707.163 
  "/>
<polyline clip-path="url(#clip9102)" style="stroke:#10092d; stroke-width:4; stroke-opacity:1; fill:none" points="
  2058.11,661.18 2015.35,635.77 2008.26,631.489 1972.59,614.023 1929.84,591.254 1887.08,566.095 1882.8,563.553 1844.32,544.938 1801.56,522.302 1758.8,497.293 
  1755.95,495.618 1716.04,476.444 1673.28,453.895 1630.53,428.986 1628.3,427.682 1587.77,408.294 1545.01,385.813 1502.25,360.983 1500.13,359.747 1459.49,340.363 
  1416.73,317.946 1373.97,293.193 1371.6,291.812 1331.21,272.595 1288.46,250.25 1245.7,225.583 1242.75,223.876 1202.94,204.974 1160.18,182.717 1117.42,158.157 
  1113.59,155.941 1074.66,137.511 1031.9,115.37 989.145,90.95 984.036,88.0053 
  "/>
<polyline clip-path="url(#clip9102)" style="stroke:#140a36; stroke-width:4; stroke-opacity:1; fill:none" points="
  1071.23,88.0053 1074.66,89.9899 1117.42,114.584 1160.18,136.868 1200.34,155.941 1202.94,157.446 1245.7,182.135 1288.46,204.497 1329.19,223.876 1331.21,225.055 
  1373.97,249.818 1416.73,272.242 1457.79,291.812 1459.49,292.802 1502.25,317.627 1545.01,340.101 1586.15,359.747 1587.77,360.693 1630.53,385.576 1673.28,408.1 
  1714.18,427.682 1716.04,428.771 1758.8,453.719 1801.56,476.3 1841.74,495.618 1844.32,497.134 1887.08,522.171 1929.84,544.831 1968.52,563.553 1972.59,565.976 
  2015.35,591.156 2058.11,613.944 
  "/>
<polyline clip-path="url(#clip9102)" style="stroke:#000003; stroke-width:4; stroke-opacity:1; fill:none" points="
  1162.8,1107.04 1160.18,1114.73 1137.52,1174.97 1117.42,1194.07 1074.66,1233.92 1064.44,1242.91 1031.9,1260.8 989.145,1283.84 946.386,1306.4 936.792,1310.84 
  903.627,1321.97 860.869,1334.66 818.11,1345.23 775.351,1352.69 732.593,1355.79 689.834,1352.92 647.075,1342.06 604.317,1320.67 591.472,1310.84 561.558,1272.29 
  544.951,1242.91 524.99,1174.97 518.92,1107.04 524.99,1039.1 544.951,971.166 561.558,941.783 591.472,903.23 604.317,893.407 647.075,872.016 689.834,861.155 
  732.593,858.284 775.351,861.38 818.11,868.843 860.869,879.413 903.627,892.102 936.792,903.23 946.386,907.671 989.145,930.237 1031.9,953.27 1064.44,971.166 
  1074.66,980.155 1117.42,1020 1137.52,1039.1 1160.18,1099.34 1162.8,1107.04 
  "/>
<polyline clip-path="url(#clip9102)" style="stroke:#000003; stroke-width:4; stroke-opacity:1; fill:none" points="
  990.691,1107.04 989.145,1110.16 949.702,1174.97 946.386,1176.92 903.627,1196.01 860.869,1209.49 818.11,1215.08 775.351,1209.9 732.593,1190.28 714.617,1174.97 
  691.186,1107.04 714.617,1039.1 732.593,1023.79 775.351,1004.18 818.11,998.99 860.869,1004.58 903.627,1018.06 946.386,1037.15 949.702,1039.1 989.145,1103.92 
  990.691,1107.04 
  "/>
<polyline clip-path="url(#clip9102)" style="stroke:#ff0000; stroke-width:4; stroke-opacity:1; fill:none" points="
  1198.91,1127.53 947.116,994.346 921.842,1114.97 862.881,1083.78 857.613,1108.92 845.312,1102.41 844.263,1107.42 841.813,1106.13 841.606,1107.11 841.123,1106.86 
  841.083,1107.05 840.988,1107 840.98,1107.04 840.961,1107.03 840.959,1107.04 840.956,1107.04 840.955,1107.04 
  "/>
<polyline clip-path="url(#clip9102)" style="stroke:#ff0000; stroke-width:4; stroke-opacity:1; fill:none" stroke-dasharray="16, 10" points="
  1281.67,732.578 1143.37,1375.41 1045.14,926.205 974.548,1239.62 926.729,1019.34 893.575,1173.71 873.42,1064.12 859.955,1141.13 852.631,1086.4 847.581,1124.73 
  845.137,1097.6 843.208,1116.54 842.448,1103.16 841.88,1109.68 841.52,1105.11 841.308,1108.32 841.169,1106.07 841.091,1107.65 841.035,1106.54 841.007,1107.32 
  840.984,1106.77 840.975,1107.15 840.968,1106.97 840.962,1107.1 840.96,1107.01 840.958,1107.05 840.957,1107.03 840.956,1107.04 840.955,1107.03 840.955,1107.04 
  840.955,1107.04 840.955,1107.04 
  "/>
<polyline clip-path="url(#clip9102)" style="stroke:#0000ff; stroke-width:4; stroke-opacity:1; fill:none" points="
  1198.91,1127.53 853.548,1059.15 843.327,1107.32 841.016,1106.86 840.979,1107.04 840.955,1107.03 840.955,1107.04 
  "/>
<polyline clip-path="url(#clip9102)" style="stroke:#0000ff; stroke-width:4; stroke-opacity:1; fill:none" stroke-dasharray="16, 10" points="
  1308.68,603.664 1178.98,1222.43 981.231,876.232 846.516,1329.02 765.886,882.829 746.975,1200.61 785.352,1056.64 821.507,1157.46 832.54,1080.73 836.301,1117.76 
  838.677,1099.69 840.015,1112.43 840.592,1103.49 840.831,1109.75 840.911,1105.36 840.941,1108.43 840.949,1106.28 840.951,1107.34 840.953,1106.82 840.954,1107.18 
  840.954,1106.93 840.954,1107.11 840.954,1106.98 840.954,1107.07 840.954,1107.01 840.954,1107.05 840.954,1107.02 840.954,1107.04 840.954,1107.03 840.954,1107.04 
  840.954,1107.03 840.954,1107.04 840.954,1107.04 
  "/>
<polyline clip-path="url(#clip9102)" style="stroke:#008000; stroke-width:4; stroke-opacity:1; fill:none" points="
  2013.12,1028.23 828.635,1030.09 852.017,1105.15 840.941,1106.99 840.954,1107.04 
  "/>
<polyline clip-path="url(#clip9102)" style="stroke:#008000; stroke-width:4; stroke-opacity:1; fill:none" stroke-dasharray="16, 10" points="
  1632.96,428.886 1374.47,517.995 1253.45,678.576 1108.1,821.407 982.722,957.678 886.127,1059.01 845.847,1101.87 841.01,1106.98 840.954,1107.04 
  "/>
<polyline clip-path="url(#clip9102)" style="stroke:#ee82ee; stroke-width:4; stroke-opacity:1; fill:none" points="
  2013.12,1028.23 981.415,518.05 752.716,763.529 929.934,1084.17 844.133,1076.17 842.215,1107.08 840.96,1106.99 840.954,1107.04 
  "/>
<polyline clip-path="url(#clip9102)" style="stroke:#ee82ee; stroke-width:4; stroke-opacity:1; fill:none" stroke-dasharray="16, 10" points="
  1632.96,428.886 1286.14,376.998 1751.12,792.479 236.652,134.928 626.834,381.161 779.221,537.732 942.987,714.451 1059.38,855.467 1100.54,941.072 1078.57,988.871 
  1011.63,1020.58 945.515,1043.13 900.346,1062.37 873.231,1078.24 858.038,1089.91 849.872,1097.48 845.575,1101.92 843.337,1104.36 842.178,1105.66 841.581,1106.33 
  841.275,1106.67 841.118,1106.85 841.038,1106.94 840.997,1106.99 840.976,1107.01 840.966,1107.02 840.96,1107.03 840.957,1107.03 840.956,1107.03 840.955,1107.04 
  840.955,1107.04 
  "/>
<defs>
  <clipPath id="clip9103">
    <rect x="2160" y="47" width="73" height="1441"/>
  </clipPath>
</defs>
<polyline clip-path="url(#clip9103)" style="stroke:#000003; stroke-width:4; stroke-opacity:1; fill:none" points="
  2160.76,1489.75 2232.76,1489.75 
  "/>
<polyline clip-path="url(#clip9103)" style="stroke:#000003; stroke-width:4; stroke-opacity:1; fill:none" points="
  2160.76,1489.43 2232.76,1489.43 
  "/>
<polyline clip-path="url(#clip9103)" style="stroke:#000003; stroke-width:4; stroke-opacity:1; fill:none" points="
  2160.76,1489.03 2232.76,1489.03 
  "/>
<polyline clip-path="url(#clip9103)" style="stroke:#000003; stroke-width:4; stroke-opacity:1; fill:none" points="
  2160.76,1488.55 2232.76,1488.55 
  "/>
<polyline clip-path="url(#clip9103)" style="stroke:#000003; stroke-width:4; stroke-opacity:1; fill:none" points="
  2160.76,1487.96 2232.76,1487.96 
  "/>
<polyline clip-path="url(#clip9103)" style="stroke:#000003; stroke-width:4; stroke-opacity:1; fill:none" points="
  2160.76,1487.25 2232.76,1487.25 
  "/>
<polyline clip-path="url(#clip9103)" style="stroke:#000003; stroke-width:4; stroke-opacity:1; fill:none" points="
  2160.76,1486.37 2232.76,1486.37 
  "/>
<polyline clip-path="url(#clip9103)" style="stroke:#000003; stroke-width:4; stroke-opacity:1; fill:none" points="
  2160.76,1485.3 2232.76,1485.3 
  "/>
<polyline clip-path="url(#clip9103)" style="stroke:#000005; stroke-width:4; stroke-opacity:1; fill:none" points="
  2160.76,1484 2232.76,1484 
  "/>
<polyline clip-path="url(#clip9103)" style="stroke:#000005; stroke-width:4; stroke-opacity:1; fill:none" points="
  2160.76,1482.4 2232.76,1482.4 
  "/>
<polyline clip-path="url(#clip9103)" style="stroke:#000005; stroke-width:4; stroke-opacity:1; fill:none" points="
  2160.76,1480.45 2232.76,1480.45 
  "/>
<polyline clip-path="url(#clip9103)" style="stroke:#010007; stroke-width:4; stroke-opacity:1; fill:none" points="
  2160.76,1478.07 2232.76,1478.07 
  "/>
<polyline clip-path="url(#clip9103)" style="stroke:#010007; stroke-width:4; stroke-opacity:1; fill:none" points="
  2160.76,1475.16 2232.76,1475.16 
  "/>
<polyline clip-path="url(#clip9103)" style="stroke:#010109; stroke-width:4; stroke-opacity:1; fill:none" points="
  2160.76,1471.61 2232.76,1471.61 
  "/>
<polyline clip-path="url(#clip9103)" style="stroke:#02010b; stroke-width:4; stroke-opacity:1; fill:none" points="
  2160.76,1467.28 2232.76,1467.28 
  "/>
<polyline clip-path="url(#clip9103)" style="stroke:#02010d; stroke-width:4; stroke-opacity:1; fill:none" points="
  2160.76,1461.98 2232.76,1461.98 
  "/>
<polyline clip-path="url(#clip9103)" style="stroke:#03020f; stroke-width:4; stroke-opacity:1; fill:none" points="
  2160.76,1455.51 2232.76,1455.51 
  "/>
<polyline clip-path="url(#clip9103)" style="stroke:#030211; stroke-width:4; stroke-opacity:1; fill:none" points="
  2160.76,1447.61 2232.76,1447.61 
  "/>
<polyline clip-path="url(#clip9103)" style="stroke:#040314; stroke-width:4; stroke-opacity:1; fill:none" points="
  2160.76,1437.96 2232.76,1437.96 
  "/>
<polyline clip-path="url(#clip9103)" style="stroke:#060419; stroke-width:4; stroke-opacity:1; fill:none" points="
  2160.76,1426.17 2232.76,1426.17 
  "/>
<polyline clip-path="url(#clip9103)" style="stroke:#08051e; stroke-width:4; stroke-opacity:1; fill:none" points="
  2160.76,1411.77 2232.76,1411.77 
  "/>
<polyline clip-path="url(#clip9103)" style="stroke:#0c0727; stroke-width:4; stroke-opacity:1; fill:none" points="
  2160.76,1394.18 2232.76,1394.18 
  "/>
<polyline clip-path="url(#clip9103)" style="stroke:#10092d; stroke-width:4; stroke-opacity:1; fill:none" points="
  2160.76,1372.7 2232.76,1372.7 
  "/>
<polyline clip-path="url(#clip9103)" style="stroke:#160b38; stroke-width:4; stroke-opacity:1; fill:none" points="
  2160.76,1346.46 2232.76,1346.46 
  "/>
<g clip-path="url(#clip9100)">
<text style="fill:#000000; fill-opacity:1; font-family:Arial,Helvetica Neue,Helvetica,sans-serif; font-size:48px; text-anchor:start;" transform="rotate(0, 2268.76, 1359.36)" x="2268.76" y="1359.36">100</text>
</g>
<g clip-path="url(#clip9100)">
<text style="fill:#000000; fill-opacity:1; font-family:Arial,Helvetica Neue,Helvetica,sans-serif; font-size:48px; text-anchor:start;" transform="rotate(0, 2268.76, 1213.87)" x="2268.76" y="1213.87">200</text>
</g>
<g clip-path="url(#clip9100)">
<text style="fill:#000000; fill-opacity:1; font-family:Arial,Helvetica Neue,Helvetica,sans-serif; font-size:48px; text-anchor:start;" transform="rotate(0, 2268.76, 1068.38)" x="2268.76" y="1068.38">300</text>
</g>
<g clip-path="url(#clip9100)">
<text style="fill:#000000; fill-opacity:1; font-family:Arial,Helvetica Neue,Helvetica,sans-serif; font-size:48px; text-anchor:start;" transform="rotate(0, 2268.76, 922.889)" x="2268.76" y="922.889">400</text>
</g>
<g clip-path="url(#clip9100)">
<text style="fill:#000000; fill-opacity:1; font-family:Arial,Helvetica Neue,Helvetica,sans-serif; font-size:48px; text-anchor:start;" transform="rotate(0, 2268.76, 777.398)" x="2268.76" y="777.398">500</text>
</g>
<g clip-path="url(#clip9100)">
<text style="fill:#000000; fill-opacity:1; font-family:Arial,Helvetica Neue,Helvetica,sans-serif; font-size:48px; text-anchor:start;" transform="rotate(0, 2268.76, 631.907)" x="2268.76" y="631.907">600</text>
</g>
<g clip-path="url(#clip9100)">
<text style="fill:#000000; fill-opacity:1; font-family:Arial,Helvetica Neue,Helvetica,sans-serif; font-size:48px; text-anchor:start;" transform="rotate(0, 2268.76, 486.415)" x="2268.76" y="486.415">700</text>
</g>
<g clip-path="url(#clip9100)">
<text style="fill:#000000; fill-opacity:1; font-family:Arial,Helvetica Neue,Helvetica,sans-serif; font-size:48px; text-anchor:start;" transform="rotate(0, 2268.76, 340.924)" x="2268.76" y="340.924">800</text>
</g>
<g clip-path="url(#clip9100)">
<text style="fill:#000000; fill-opacity:1; font-family:Arial,Helvetica Neue,Helvetica,sans-serif; font-size:48px; text-anchor:start;" transform="rotate(0, 2268.76, 195.433)" x="2268.76" y="195.433">900</text>
</g>
<polyline clip-path="url(#clip9100)" style="stroke:#000000; stroke-width:4; stroke-opacity:1; fill:none" points="
  2232.76,1487.47 2232.76,1345.71 2256.76,1345.71 2232.76,1345.71 2232.76,1200.22 2256.76,1200.22 2232.76,1200.22 2232.76,1054.73 2256.76,1054.73 2232.76,1054.73 
  2232.76,909.238 2256.76,909.238 2232.76,909.238 2232.76,763.746 2256.76,763.746 2232.76,763.746 2232.76,618.255 2256.76,618.255 2232.76,618.255 2232.76,472.764 
  2256.76,472.764 2232.76,472.764 2232.76,327.273 2256.76,327.273 2232.76,327.273 2232.76,181.782 2256.76,181.782 2232.76,181.782 2232.76,47.2441 
  "/>
<path clip-path="url(#clip9100)" d="
M1360.67 675.084 L2040.76 675.084 L2040.76 130.764 L1360.67 130.764  Z
  " fill="#ffffff" fill-rule="evenodd" fill-opacity="1"/>
<polyline clip-path="url(#clip9100)" style="stroke:#000000; stroke-width:4; stroke-opacity:1; fill:none" points="
  1360.67,675.084 2040.76,675.084 2040.76,130.764 1360.67,130.764 1360.67,675.084 
  "/>
<polyline clip-path="url(#clip9100)" style="stroke:#ff0000; stroke-width:4; stroke-opacity:1; fill:none" points="
  1384.67,191.244 1528.67,191.244 
  "/>
<g clip-path="url(#clip9100)">
<text style="fill:#000000; fill-opacity:1; font-family:Arial,Helvetica Neue,Helvetica,sans-serif; font-size:48px; text-anchor:start;" transform="rotate(0, 1552.67, 208.744)" x="1552.67" y="208.744">Gradient - Golden</text>
</g>
<polyline clip-path="url(#clip9100)" style="stroke:#ff0000; stroke-width:4; stroke-opacity:1; fill:none" stroke-dasharray="16, 10" points="
  1384.67,251.724 1528.67,251.724 
  "/>
<g clip-path="url(#clip9100)">
<text style="fill:#000000; fill-opacity:1; font-family:Arial,Helvetica Neue,Helvetica,sans-serif; font-size:48px; text-anchor:start;" transform="rotate(0, 1552.67, 269.224)" x="1552.67" y="269.224">Gradient - Armijo</text>
</g>
<polyline clip-path="url(#clip9100)" style="stroke:#0000ff; stroke-width:4; stroke-opacity:1; fill:none" points="
  1384.67,312.204 1528.67,312.204 
  "/>
<g clip-path="url(#clip9100)">
<text style="fill:#000000; fill-opacity:1; font-family:Arial,Helvetica Neue,Helvetica,sans-serif; font-size:48px; text-anchor:start;" transform="rotate(0, 1552.67, 329.704)" x="1552.67" y="329.704">Heavy Ball - Golden</text>
</g>
<polyline clip-path="url(#clip9100)" style="stroke:#0000ff; stroke-width:4; stroke-opacity:1; fill:none" stroke-dasharray="16, 10" points="
  1384.67,372.684 1528.67,372.684 
  "/>
<g clip-path="url(#clip9100)">
<text style="fill:#000000; fill-opacity:1; font-family:Arial,Helvetica Neue,Helvetica,sans-serif; font-size:48px; text-anchor:start;" transform="rotate(0, 1552.67, 390.184)" x="1552.67" y="390.184">Heavy Ball - Armijo</text>
</g>
<polyline clip-path="url(#clip9100)" style="stroke:#008000; stroke-width:4; stroke-opacity:1; fill:none" points="
  1384.67,433.164 1528.67,433.164 
  "/>
<g clip-path="url(#clip9100)">
<text style="fill:#000000; fill-opacity:1; font-family:Arial,Helvetica Neue,Helvetica,sans-serif; font-size:48px; text-anchor:start;" transform="rotate(0, 1552.67, 450.664)" x="1552.67" y="450.664">Newton - Golden</text>
</g>
<polyline clip-path="url(#clip9100)" style="stroke:#008000; stroke-width:4; stroke-opacity:1; fill:none" stroke-dasharray="16, 10" points="
  1384.67,493.644 1528.67,493.644 
  "/>
<g clip-path="url(#clip9100)">
<text style="fill:#000000; fill-opacity:1; font-family:Arial,Helvetica Neue,Helvetica,sans-serif; font-size:48px; text-anchor:start;" transform="rotate(0, 1552.67, 511.144)" x="1552.67" y="511.144">Newton - Armijo</text>
</g>
<polyline clip-path="url(#clip9100)" style="stroke:#ee82ee; stroke-width:4; stroke-opacity:1; fill:none" points="
  1384.67,554.124 1528.67,554.124 
  "/>
<g clip-path="url(#clip9100)">
<text style="fill:#000000; fill-opacity:1; font-family:Arial,Helvetica Neue,Helvetica,sans-serif; font-size:48px; text-anchor:start;" transform="rotate(0, 1552.67, 571.624)" x="1552.67" y="571.624">BFGS - Golden</text>
</g>
<polyline clip-path="url(#clip9100)" style="stroke:#ee82ee; stroke-width:4; stroke-opacity:1; fill:none" stroke-dasharray="16, 10" points="
  1384.67,614.604 1528.67,614.604 
  "/>
<g clip-path="url(#clip9100)">
<text style="fill:#000000; fill-opacity:1; font-family:Arial,Helvetica Neue,Helvetica,sans-serif; font-size:48px; text-anchor:start;" transform="rotate(0, 1552.67, 632.104)" x="1552.67" y="632.104">BFGS - Armijo</text>
</g>
</svg>
