<?xml version="1.0" encoding="utf-8"?>
<svg xmlns="http://www.w3.org/2000/svg" xmlns:xlink="http://www.w3.org/1999/xlink" width="600" height="400" viewBox="0 0 2400 1600">
<defs>
  <clipPath id="clip8300">
    <rect x="0" y="0" width="2400" height="1600"/>
  </clipPath>
</defs>
<path clip-path="url(#clip8300)" d="
M0 1600 L2400 1600 L2400 0 L0 0  Z
  " fill="#ffffff" fill-rule="evenodd" fill-opacity="1"/>
<defs>
  <clipPath id="clip8301">
    <rect x="480" y="0" width="1681" height="1600"/>
  </clipPath>
</defs>
<path clip-path="url(#clip8300)" d="
M141.865 1487.47 L2112.76 1487.47 L2112.76 47.2441 L141.865 47.2441  Z
  " fill="#ffffff" fill-rule="evenodd" fill-opacity="1"/>
<defs>
  <clipPath id="clip8302">
    <rect x="141" y="47" width="1972" height="1441"/>
  </clipPath>
</defs>
<polyline clip-path="url(#clip8302)" style="stroke:#000000; stroke-width:2; stroke-opacity:0.1; fill:none" points="
  445.555,1487.47 445.555,47.2441 
  "/>
<polyline clip-path="url(#clip8302)" style="stroke:#000000; stroke-width:2; stroke-opacity:0.1; fill:none" points="
  941.377,1487.47 941.377,47.2441 
  "/>
<polyline clip-path="url(#clip8302)" style="stroke:#000000; stroke-width:2; stroke-opacity:0.1; fill:none" points="
  1437.2,1487.47 1437.2,47.2441 
  "/>
<polyline clip-path="url(#clip8302)" style="stroke:#000000; stroke-width:2; stroke-opacity:0.1; fill:none" points="
  1933.02,1487.47 1933.02,47.2441 
  "/>
<polyline clip-path="url(#clip8302)" style="stroke:#000000; stroke-width:2; stroke-opacity:0.1; fill:none" points="
  141.865,1446.71 2112.76,1446.71 
  "/>
<polyline clip-path="url(#clip8302)" style="stroke:#000000; stroke-width:2; stroke-opacity:0.1; fill:none" points="
  141.865,1220.26 2112.76,1220.26 
  "/>
<polyline clip-path="url(#clip8302)" style="stroke:#000000; stroke-width:2; stroke-opacity:0.1; fill:none" points="
  141.865,993.811 2112.76,993.811 
  "/>
<polyline clip-path="url(#clip8302)" style="stroke:#000000; stroke-width:2; stroke-opacity:0.1; fill:none" points="
  141.865,767.359 2112.76,767.359 
  "/>
<polyline clip-path="url(#clip8302)" style="stroke:#000000; stroke-width:2; stroke-opacity:0.1; fill:none" points="
  141.865,540.908 2112.76,540.908 
  "/>
<polyline clip-path="url(#clip8302)" style="stroke:#000000; stroke-width:2; stroke-opacity:0.1; fill:none" points="
  141.865,314.457 2112.76,314.457 
  "/>
<polyline clip-path="url(#clip8302)" style="stroke:#000000; stroke-width:2; stroke-opacity:0.1; fill:none" points="
  141.865,88.0053 2112.76,88.0053 
  "/>
<polyline clip-path="url(#clip8300)" style="stroke:#000000; stroke-width:4; stroke-opacity:1; fill:none" points="
  141.865,1487.47 2112.76,1487.47 
  "/>
<polyline clip-path="url(#clip8300)" style="stroke:#000000; stroke-width:4; stroke-opacity:1; fill:none" points="
  141.865,1487.47 141.865,47.2441 
  "/>
<polyline clip-path="url(#clip8300)" style="stroke:#000000; stroke-width:4; stroke-opacity:1; fill:none" points="
  445.555,1487.47 445.555,1465.87 
  "/>
<polyline clip-path="url(#clip8300)" style="stroke:#000000; stroke-width:4; stroke-opacity:1; fill:none" points="
  941.377,1487.47 941.377,1465.87 
  "/>
<polyline clip-path="url(#clip8300)" style="stroke:#000000; stroke-width:4; stroke-opacity:1; fill:none" points="
  1437.2,1487.47 1437.2,1465.87 
  "/>
<polyline clip-path="url(#clip8300)" style="stroke:#000000; stroke-width:4; stroke-opacity:1; fill:none" points="
  1933.02,1487.47 1933.02,1465.87 
  "/>
<polyline clip-path="url(#clip8300)" style="stroke:#000000; stroke-width:4; stroke-opacity:1; fill:none" points="
  141.865,1446.71 171.428,1446.71 
  "/>
<polyline clip-path="url(#clip8300)" style="stroke:#000000; stroke-width:4; stroke-opacity:1; fill:none" points="
  141.865,1220.26 171.428,1220.26 
  "/>
<polyline clip-path="url(#clip8300)" style="stroke:#000000; stroke-width:4; stroke-opacity:1; fill:none" points="
  141.865,993.811 171.428,993.811 
  "/>
<polyline clip-path="url(#clip8300)" style="stroke:#000000; stroke-width:4; stroke-opacity:1; fill:none" points="
  141.865,767.359 171.428,767.359 
  "/>
<polyline clip-path="url(#clip8300)" style="stroke:#000000; stroke-width:4; stroke-opacity:1; fill:none" points="
  141.865,540.908 171.428,540.908 
  "/>
<polyline clip-path="url(#clip8300)" style="stroke:#000000; stroke-width:4; stroke-opacity:1; fill:none" points="
  141.865,314.457 171.428,314.457 
  "/>
<polyline clip-path="url(#clip8300)" style="stroke:#000000; stroke-width:4; stroke-opacity:1; fill:none" points="
  141.865,88.0053 171.428,88.0053 
  "/>
<g clip-path="url(#clip8300)">
<text style="fill:#000000; fill-opacity:1; font-family:Arial,Helvetica Neue,Helvetica,sans-serif; font-size:48px; text-anchor:middle;" transform="rotate(0, 445.555, 1541.47)" x="445.555" y="1541.47">0</text>
</g>
<g clip-path="url(#clip8300)">
<text style="fill:#000000; fill-opacity:1; font-family:Arial,Helvetica Neue,Helvetica,sans-serif; font-size:48px; text-anchor:middle;" transform="rotate(0, 941.377, 1541.47)" x="941.377" y="1541.47">2</text>
</g>
<g clip-path="url(#clip8300)">
<text style="fill:#000000; fill-opacity:1; font-family:Arial,Helvetica Neue,Helvetica,sans-serif; font-size:48px; text-anchor:middle;" transform="rotate(0, 1437.2, 1541.47)" x="1437.2" y="1541.47">4</text>
</g>
<g clip-path="url(#clip8300)">
<text style="fill:#000000; fill-opacity:1; font-family:Arial,Helvetica Neue,Helvetica,sans-serif; font-size:48px; text-anchor:middle;" transform="rotate(0, 1933.02, 1541.47)" x="1933.02" y="1541.47">6</text>
</g>
<g clip-path="url(#clip8300)">
<text style="fill:#000000; fill-opacity:1; font-family:Arial,Helvetica Neue,Helvetica,sans-serif; font-size:48px; text-anchor:end;" transform="rotate(0, 117.865, 1464.21)" x="117.865" y="1464.21">-1</text>
</g>
<g clip-path="url(#clip8300)">
<text style="fill:#000000; fill-opacity:1; font-family:Arial,Helvetica Neue,Helvetica,sans-serif; font-size:48px; text-anchor:end;" transform="rotate(0, 117.865, 1237.76)" x="117.865" y="1237.76">0</text>
</g>
<g clip-path="url(#clip8300)">
<text style="fill:#000000; fill-opacity:1; font-family:Arial,Helvetica Neue,Helvetica,sans-serif; font-size:48px; text-anchor:end;" transform="rotate(0, 117.865, 1011.31)" x="117.865" y="1011.31">1</text>
</g>
<g clip-path="url(#clip8300)">
<text style="fill:#000000; fill-opacity:1; font-family:Arial,Helvetica Neue,Helvetica,sans-serif; font-size:48px; text-anchor:end;" transform="rotate(0, 117.865, 784.859)" x="117.865" y="784.859">2</text>
</g>
<g clip-path="url(#clip8300)">
<text style="fill:#000000; fill-opacity:1; font-family:Arial,Helvetica Neue,Helvetica,sans-serif; font-size:48px; text-anchor:end;" transform="rotate(0, 117.865, 558.408)" x="117.865" y="558.408">3</text>
</g>
<g clip-path="url(#clip8300)">
<text style="fill:#000000; fill-opacity:1; font-family:Arial,Helvetica Neue,Helvetica,sans-serif; font-size:48px; text-anchor:end;" transform="rotate(0, 117.865, 331.957)" x="117.865" y="331.957">4</text>
</g>
<g clip-path="url(#clip8300)">
<text style="fill:#000000; fill-opacity:1; font-family:Arial,Helvetica Neue,Helvetica,sans-serif; font-size:48px; text-anchor:end;" transform="rotate(0, 117.865, 105.505)" x="117.865" y="105.505">5</text>
</g>
<polyline clip-path="url(#clip8302)" style="stroke:#000003; stroke-width:4; stroke-opacity:1; fill:none" points="
  267.575,1446.71 272.018,1444.4 296.809,1429.33 304.937,1424.07 321.6,1413.07 338.767,1401.42 346.391,1396.15 370.839,1378.78 371.182,1378.53 395.973,1359.3 
  399.972,1356.13 420.764,1339.37 427.932,1333.49 445.555,1318.77 454.866,1310.84 470.346,1297.44 480.829,1288.2 495.138,1275.36 505.873,1265.55 519.929,1252.48 
  530.047,1242.91 544.72,1228.77 553.393,1220.26 569.511,1204.16 575.955,1197.62 594.302,1178.62 597.772,1174.97 618.821,1152.33 619.093,1152.01 638.108,1129.68 
  643.884,1122.72 656.632,1107.04 668.675,1091.82 674.436,1084.39 690.935,1061.75 693.466,1057.69 704.771,1039.1 717.794,1016.46 718.257,1015.04 724.953,993.811 
  723.17,971.166 718.257,966.678 693.466,965.049 670.228,971.166 668.675,971.589 643.884,983.485 623.536,993.811 619.093,996.122 594.302,1011.19 586.173,1016.46 
  569.511,1027.46 552.344,1039.1 544.72,1044.38 520.271,1061.75 519.929,1061.99 495.138,1081.22 491.139,1084.39 470.346,1101.15 463.179,1107.04 445.555,1121.76 
  436.245,1129.68 420.764,1143.08 410.282,1152.33 395.973,1165.17 385.237,1174.97 371.182,1188.04 361.064,1197.62 346.391,1211.76 337.717,1220.26 321.6,1236.36 
  315.155,1242.91 296.809,1261.9 293.339,1265.55 272.29,1288.2 272.018,1288.51 253.002,1310.84 247.227,1317.81 234.479,1333.49 222.436,1348.71 216.675,1356.13 
  200.175,1378.78 197.644,1382.84 
  "/>
<polyline clip-path="url(#clip8302)" style="stroke:#000005; stroke-width:4; stroke-opacity:1; fill:none" points="
  197.644,1319.44 205.313,1310.84 222.436,1291.95 225.881,1288.2 247.041,1265.55 247.227,1265.36 269.221,1242.91 272.018,1240.09 291.925,1220.26 296.809,1215.46 
  315.173,1197.62 321.6,1191.45 338.985,1174.97 346.391,1168.04 363.381,1152.33 371.182,1145.2 388.383,1129.68 395.973,1122.92 414.014,1107.04 420.764,1101.17 
  440.298,1084.39 445.555,1079.93 467.26,1061.75 470.346,1059.19 494.928,1039.1 495.138,1038.93 519.929,1019.6 524.035,1016.46 544.72,1000.82 554.133,993.811 
  569.511,982.519 585.227,971.166 594.302,964.694 617.365,948.52 619.093,947.324 643.884,931.274 652.522,925.875 668.675,915.929 689.763,903.23 693.466,901.033 
  718.257,887.941 733.175,880.585 743.048,875.801 767.839,865.83 791.658,857.94 792.631,857.625 817.422,855.218 828.244,857.94 842.213,870.7 845.193,880.585 
  842.558,903.23 842.213,904.118 833.575,925.875 822.659,948.52 817.422,957.539 809.369,971.166 795.036,993.811 792.631,997.193 778.728,1016.46 767.839,1031.21 
  761.93,1039.1 744.358,1061.75 743.048,1063.32 725.342,1084.39 718.257,1092.68 705.828,1107.04 693.466,1121.08 685.798,1129.68 668.675,1148.58 665.23,1152.33 
  644.07,1174.97 643.884,1175.16 621.89,1197.62 619.093,1200.44 599.186,1220.26 594.302,1225.06 575.938,1242.91 569.511,1249.07 552.126,1265.55 544.72,1272.49 
  527.73,1288.2 519.929,1295.32 502.728,1310.84 495.138,1317.61 477.097,1333.49 470.346,1339.36 450.813,1356.13 445.555,1360.59 423.85,1378.78 420.764,1381.33 
  396.183,1401.42 395.973,1401.59 371.182,1420.92 367.076,1424.07 346.391,1439.71 336.977,1446.71 
  "/>
<polyline clip-path="url(#clip8302)" style="stroke:#010109; stroke-width:4; stroke-opacity:1; fill:none" points="
  412.93,1446.71 420.764,1440.26 440.241,1424.07 445.555,1419.61 467.019,1401.42 470.346,1398.58 493.279,1378.78 495.138,1377.16 519.037,1356.13 519.929,1355.34 
  544.306,1333.49 544.72,1333.11 569.101,1310.84 569.511,1310.47 593.435,1288.2 594.302,1287.38 617.32,1265.55 619.093,1263.85 640.769,1242.91 643.884,1239.87 
  663.793,1220.26 668.675,1215.41 686.405,1197.62 693.466,1190.46 708.614,1174.97 718.257,1165.01 730.433,1152.33 743.048,1139.05 751.87,1129.68 767.839,1112.55 
  772.935,1107.04 792.631,1085.5 793.64,1084.39 813.565,1061.75 817.422,1057.28 832.987,1039.1 842.213,1028.19 852.046,1016.46 867.004,998.38 870.749,993.811 
  888.742,971.166 891.795,967.161 905.858,948.52 916.586,934.083 922.623,925.875 938.692,903.23 941.377,899.159 953.484,880.585 966.168,860.739 967.936,857.94 
  980.531,835.295 990.959,815.591 992.496,812.65 1001.81,790.005 1009.25,767.359 1013.14,744.714 1009,722.069 990.959,705.589 966.168,701.805 941.377,705.359 
  916.586,712.154 891.795,720.666 888.575,722.069 867.004,731.595 842.213,743.099 839.149,744.714 817.422,756.301 797.088,767.359 792.631,769.812 767.839,784.49 
  758.854,790.005 743.048,799.804 722.641,812.65 718.257,815.438 693.466,831.874 688.464,835.295 668.675,848.958 655.826,857.94 643.884,866.367 623.979,880.585 
  619.093,884.108 594.302,902.309 593.084,903.23 569.511,921.221 563.474,925.875 544.72,940.463 534.466,948.52 519.929,960.044 506.04,971.166 495.138,979.974 
  478.181,993.811 470.346,1000.26 450.87,1016.46 445.555,1020.91 424.092,1039.1 420.764,1041.95 397.832,1061.75 395.973,1063.37 372.074,1084.39 371.182,1085.18 
  346.804,1107.04 346.391,1107.41 322.009,1129.68 321.6,1130.06 297.676,1152.33 296.809,1153.14 273.791,1174.97 272.018,1176.67 250.342,1197.62 247.227,1200.66 
  227.317,1220.26 222.436,1225.12 204.706,1242.91 197.644,1250.06 
  "/>
<polyline clip-path="url(#clip8302)" style="stroke:#030211; stroke-width:4; stroke-opacity:1; fill:none" points="
  197.644,1160.06 205.739,1152.33 222.436,1136.48 229.642,1129.68 247.227,1113.2 253.85,1107.04 272.018,1090.23 278.366,1084.39 296.809,1067.55 303.198,1061.75 
  321.6,1045.15 328.351,1039.1 346.391,1023.04 353.833,1016.46 371.182,1001.2 379.648,993.811 395.973,979.642 405.804,971.166 420.764,958.346 432.308,948.52 
  445.555,937.313 459.166,925.875 470.346,916.537 486.386,903.23 495.138,896.013 513.975,880.585 519.929,875.738 541.94,857.94 544.72,855.706 569.511,835.966 
  570.367,835.295 594.302,816.665 599.501,812.65 619.093,797.612 629.081,790.005 643.884,778.801 659.118,767.359 668.675,760.227 689.622,744.714 693.466,741.886 
  718.257,723.923 720.872,722.069 743.048,706.45 753.112,699.424 767.839,689.211 785.926,676.779 792.631,672.201 817.422,655.536 819.58,654.134 842.213,639.536 
  854.818,631.489 867.004,623.764 890.787,608.843 891.795,608.215 916.586,593.556 929.23,586.198 941.377,579.184 966.168,565.192 969.272,563.553 990.959,552.198 
  1012.84,540.908 1015.75,539.419 1040.54,527.879 1061.89,518.263 1065.33,516.728 1090.12,507.132 1114.91,498.286 1124.34,495.618 1139.71,491.318 1164.5,486.522 
  1189.29,484.594 1214.08,487.58 1231.5,495.618 1238.87,502.345 1247.67,518.263 1250.94,540.908 1248.83,563.553 1243.58,586.198 1238.87,600.233 1235.95,608.843 
  1226.26,631.489 1215.76,654.134 1214.08,657.276 1203.55,676.779 1190.92,699.424 1189.29,702.082 1176.93,722.069 1164.5,741.879 1162.7,744.714 1147.39,767.359 
  1139.71,778.455 1131.65,790.005 1115.6,812.65 1114.91,813.571 1098.58,835.295 1090.12,846.426 1081.31,857.94 1065.33,878.614 1063.8,880.585 1045.55,903.23 
  1040.54,909.354 1026.93,925.875 1015.75,939.328 1008.06,948.52 990.959,968.777 988.93,971.166 969.265,993.811 966.168,997.322 949.186,1016.46 941.377,1025.19 
  928.852,1039.1 916.586,1052.62 908.257,1061.75 891.795,1079.64 887.399,1084.39 867.004,1106.25 866.27,1107.04 844.658,1129.68 842.213,1132.22 822.728,1152.33 
  817.422,1157.77 800.531,1174.97 792.631,1182.97 778.063,1197.62 767.839,1207.83 755.318,1220.26 743.048,1232.36 732.291,1242.91 718.257,1256.57 708.978,1265.55 
  693.466,1280.46 685.372,1288.2 668.675,1304.05 661.468,1310.84 643.884,1327.32 637.261,1333.49 619.093,1350.3 612.745,1356.13 594.302,1372.98 587.913,1378.78 
  569.511,1395.37 562.759,1401.42 544.72,1417.49 537.278,1424.07 519.929,1439.32 511.463,1446.71 
  "/>
<polyline clip-path="url(#clip8302)" style="stroke:#090620; stroke-width:4; stroke-opacity:1; fill:none" points="
  646.124,1446.71 668.675,1426.2 671.013,1424.07 693.466,1403.47 695.687,1401.42 718.257,1380.54 720.15,1378.78 743.048,1357.4 744.404,1356.13 767.839,1334.07 
  768.453,1333.49 792.279,1310.84 792.631,1310.51 815.857,1288.2 817.422,1286.69 839.225,1265.55 842.213,1262.64 862.388,1242.91 867.004,1238.37 885.347,1220.26 
  891.795,1213.87 908.105,1197.62 916.586,1189.13 930.664,1174.97 941.377,1164.15 953.028,1152.33 966.168,1138.93 975.199,1129.68 990.959,1113.46 997.179,1107.04 
  1015.75,1087.75 1018.97,1084.39 1040.54,1061.78 1040.58,1061.75 1061.8,1039.1 1065.33,1035.32 1082.84,1016.46 1090.12,1008.57 1103.69,993.811 1114.91,981.531 
  1124.35,971.166 1139.71,954.206 1144.83,948.52 1164.5,926.587 1165.13,925.875 1185.01,903.23 1189.29,898.322 1204.67,880.585 1214.08,869.671 1224.15,857.94 
  1238.87,840.682 1243.45,835.295 1262.5,812.65 1263.66,811.241 1281.08,790.005 1288.45,780.965 1299.49,767.359 1313.24,750.295 1317.72,744.714 1335.63,722.069 
  1338.03,718.957 1353.06,699.424 1362.83,686.642 1370.32,676.779 1387.4,654.134 1387.62,653.829 1403.77,631.489 1412.41,619.447 1419.97,608.843 1435.92,586.198 
  1437.2,584.301 1451.13,563.553 1461.99,547.238 1466.18,540.908 1480.61,518.263 1486.78,508.277 1494.55,495.618 1508.06,472.973 1511.57,466.735 1520.75,450.328 
  1533.01,427.682 1536.36,420.983 1544.29,405.037 1554.86,382.392 1561.15,367.652 1564.51,359.747 1572.76,337.102 1579.9,314.457 1585.53,291.812 1585.95,288.781 
  1588.62,269.166 1588.84,246.521 1585.95,229.199 1584.71,223.876 1571.66,201.231 1561.15,191.633 1536.36,179.717 1530.54,178.586 1511.57,175.943 1486.78,176.146 
  1465.31,178.586 1461.99,178.967 1437.2,184.105 1412.41,190.628 1387.62,198.168 1378.96,201.231 1362.83,206.985 1338.03,216.638 1320.58,223.876 1313.24,226.938 
  1288.45,238.135 1270.49,246.521 1263.66,249.73 1238.87,262.067 1225.01,269.166 1214.08,274.8 1189.29,287.986 1182.36,291.812 1164.5,301.729 1141.78,314.457 
  1139.71,315.627 1114.91,330.192 1103.31,337.102 1090.12,344.991 1065.67,359.747 1065.33,359.949 1040.54,375.544 1029.74,382.392 1015.75,391.31 994.367,405.037 
  990.959,407.236 966.168,423.594 960.059,427.682 941.377,440.246 926.482,450.328 916.586,457.058 893.337,472.973 891.795,474.033 867.004,491.438 861.106,495.618 
  842.213,509.067 829.37,518.263 817.422,526.858 798.004,540.908 792.631,544.814 767.839,562.973 767.061,563.553 743.048,581.517 736.824,586.198 718.257,600.225 
  706.909,608.843 693.466,619.099 677.312,631.489 668.675,638.143 648.028,654.134 643.884,657.357 619.093,676.747 619.053,676.779 594.302,696.483 590.625,699.424 
  569.511,716.388 562.474,722.069 544.72,736.465 534.596,744.714 519.929,756.717 506.986,767.359 495.138,777.145 479.641,790.005 470.346,797.752 452.558,812.65 
  445.555,818.54 425.731,835.295 420.764,839.511 399.158,857.94 395.973,860.669 372.836,880.585 371.182,882.015 346.759,903.23 346.391,903.552 321.6,925.315 
  320.965,925.875 296.809,947.282 295.417,948.52 272.018,969.437 270.092,971.166 247.227,991.782 244.987,993.811 222.436,1014.32 220.098,1016.46 197.644,1037.05 
  
  "/>
<polyline clip-path="url(#clip8302)" style="stroke:#1b0b42; stroke-width:4; stroke-opacity:1; fill:none" points="
  197.644,865.843 206.461,857.94 222.436,843.665 231.832,835.295 247.227,821.624 257.364,812.65 272.018,799.718 283.06,790.005 296.809,777.948 308.922,767.359 
  321.6,756.311 334.949,744.714 346.391,734.806 361.145,722.069 371.182,713.431 387.511,699.424 395.973,692.187 414.048,676.779 420.764,671.071 440.759,654.134 
  445.555,650.083 467.644,631.489 470.346,629.22 494.706,608.843 495.138,608.483 519.929,587.938 522.036,586.198 544.72,567.534 549.575,563.553 569.511,547.257 
  577.304,540.908 594.302,527.104 605.227,518.263 619.093,507.076 633.344,495.618 643.884,487.17 661.659,472.973 668.675,467.385 690.172,450.328 693.466,447.722 
  718.257,428.197 718.917,427.682 743.048,408.903 748.034,405.037 767.839,389.729 777.368,382.392 792.631,370.676 806.921,359.747 817.422,351.741 836.696,337.102 
  842.213,332.925 866.695,314.457 867.004,314.225 891.795,295.801 897.187,291.812 916.586,277.505 927.937,269.166 941.377,259.326 958.934,246.521 966.168,241.262 
  990.181,223.876 990.959,223.314 1015.75,205.662 1022.01,201.231 1040.54,188.151 1054.15,178.586 1065.33,170.755 1086.57,155.941 1090.12,153.472 1114.91,136.436 
  1119.53,133.296 1139.71,119.624 1153.01,110.65 1164.5,102.926 1186.79,88.0053 
  "/>
<polyline clip-path="url(#clip8302)" style="stroke:#4d0d6b; stroke-width:4; stroke-opacity:1; fill:none" points="
  843.094,88.0053 842.213,88.6929 817.422,108.144 814.239,110.65 792.631,127.7 785.556,133.296 767.839,147.339 757.016,155.941 743.048,167.065 728.618,178.586 
  718.257,186.876 700.36,201.231 693.466,206.773 672.243,223.876 668.675,226.757 644.264,246.521 643.884,246.829 619.093,267.05 616.505,269.166 594.302,287.365 
  588.89,291.812 569.511,307.768 561.406,314.457 544.72,328.258 534.053,337.102 519.929,348.837 506.828,359.747 495.138,369.504 479.732,382.392 470.346,390.261 
  452.763,405.037 445.555,411.107 425.921,427.682 420.764,432.045 399.204,450.328 395.973,453.073 372.612,472.973 371.182,474.193 346.391,495.411 346.151,495.618 
  321.6,516.754 319.851,518.263 296.809,538.187 293.669,540.908 272.018,559.712 267.605,563.553 247.227,581.33 241.658,586.198 222.436,603.04 215.827,608.843 
  197.644,624.844 
  "/>
<polyline clip-path="url(#clip8302)" style="stroke:#ac2f5c; stroke-width:4; stroke-opacity:1; fill:none" points="
  197.644,284.318 215.078,269.166 222.436,262.781 241.203,246.521 247.227,241.31 267.411,223.876 272.018,219.903 293.703,201.231 296.809,198.561 320.08,178.586 
  321.6,177.283 346.391,156.071 346.544,155.941 371.182,134.951 373.128,133.296 395.973,113.895 399.8,110.65 420.764,92.9028 426.559,88.0053 
  "/>
<polyline clip-path="url(#clip8302)" style="stroke:#1b0b42; stroke-width:4; stroke-opacity:1; fill:none" points="
  833.561,1446.71 842.213,1438.66 857.841,1424.07 867.004,1415.49 881.971,1401.42 891.795,1392.16 905.952,1378.78 916.586,1368.69 929.785,1356.13 941.377,1345.07 
  953.473,1333.49 966.168,1321.29 977.016,1310.84 990.959,1297.37 1000.42,1288.2 1015.75,1273.28 1023.67,1265.55 1040.54,1249.04 1046.79,1242.91 1065.33,1224.64 
  1069.77,1220.26 1090.12,1200.09 1092.61,1197.62 1114.91,1175.37 1115.31,1174.97 1137.8,1152.33 1139.71,1150.4 1160.14,1129.68 1164.5,1125.25 1182.34,1107.04 
  1189.29,1099.92 1204.4,1084.39 1214.08,1074.41 1226.33,1061.75 1238.87,1048.73 1248.12,1039.1 1263.66,1022.87 1269.78,1016.46 1288.45,996.82 1291.31,993.811 
  1312.68,971.166 1313.24,970.563 1333.8,948.52 1338.03,943.967 1354.79,925.875 1362.83,917.172 1375.65,903.23 1387.62,890.177 1396.38,880.585 1412.41,862.979 
  1416.98,857.94 1437.2,835.577 1437.45,835.295 1457.62,812.65 1461.99,807.725 1477.65,790.005 1486.78,779.636 1497.55,767.359 1511.57,751.322 1517.33,744.714 
  1536.36,722.78 1536.98,722.069 1556.3,699.424 1561.15,693.707 1575.47,676.779 1585.95,664.346 1594.52,654.134 1610.74,634.732 1613.44,631.489 1632.09,608.843 
  1635.53,604.626 1650.5,586.198 1660.32,574.048 1668.78,563.553 1685.11,543.189 1686.93,540.908 1704.74,518.263 1709.9,511.643 1722.34,495.618 1734.69,479.637 
  1739.82,472.973 1757.07,450.328 1759.48,447.103 1773.95,427.682 1784.27,413.756 1790.71,405.037 1807.27,382.392 1809.07,379.872 1823.38,359.747 1833.86,344.932 
  1839.37,337.102 1855.07,314.457 1858.65,309.18 1870.37,291.812 1883.44,272.321 1885.55,269.166 1900.2,246.521 1908.23,233.936 1914.62,223.876 1928.7,201.231 
  1933.02,194.059 1942.3,178.586 1955.67,155.941 1957.81,152.144 1968.38,133.296 1980.88,110.65 1982.6,107.339 1992.61,88.0053 
  "/>
<polyline clip-path="url(#clip8302)" style="stroke:#4d0d6b; stroke-width:4; stroke-opacity:1; fill:none" points="
  2056.98,439.657 2047.98,450.328 2032.18,469.008 2028.83,472.973 2009.52,495.618 2007.39,498.088 1990.02,518.263 1982.6,526.851 1970.44,540.908 1957.81,555.45 
  1950.76,563.553 1933.02,583.885 1931,586.198 1911.06,608.843 1908.23,612.039 1890.97,631.489 1883.44,639.956 1870.8,654.134 1858.65,667.72 1850.53,676.779 
  1833.86,695.333 1830.17,699.424 1809.7,722.069 1809.07,722.771 1789.04,744.714 1784.27,749.925 1768.29,767.359 1759.48,776.938 1747.44,790.005 1734.69,803.81 
  1726.51,812.65 1709.9,830.542 1705.48,835.295 1685.11,857.135 1684.36,857.94 1663.06,880.585 1660.32,883.493 1641.65,903.23 1635.53,909.693 1620.15,925.875 
  1610.74,935.762 1598.56,948.52 1585.95,961.702 1576.87,971.166 1561.15,987.513 1555.09,993.811 1536.36,1013.2 1533.21,1016.46 1511.57,1038.75 1511.23,1039.1 
  1489.1,1061.75 1486.78,1064.11 1466.86,1084.39 1461.99,1089.33 1444.52,1107.04 1437.2,1114.44 1422.09,1129.68 1412.41,1139.43 1399.56,1152.33 1387.62,1164.29 
  1376.93,1174.97 1362.83,1189.04 1354.21,1197.62 1338.03,1213.68 1331.39,1220.26 1313.24,1238.2 1308.47,1242.91 1288.45,1262.6 1285.45,1265.55 1263.66,1286.89 
  1262.33,1288.2 1239.1,1310.84 1238.87,1311.06 1215.73,1333.49 1214.08,1335.09 1192.27,1356.13 1189.29,1359 1168.7,1378.78 1164.5,1382.81 1145.04,1401.42 
  1139.71,1406.51 1121.27,1424.07 1114.91,1430.1 1097.4,1446.71 
  "/>
<polyline clip-path="url(#clip8302)" style="stroke:#ac2f5c; stroke-width:4; stroke-opacity:1; fill:none" points="
  1470.19,1446.71 1486.78,1430.79 1493.77,1424.07 1511.57,1406.93 1517.28,1401.42 1536.36,1382.99 1540.71,1378.78 1561.15,1358.97 1564.08,1356.13 1585.95,1334.88 
  1587.37,1333.49 1610.59,1310.84 1610.74,1310.7 1633.72,1288.2 1635.53,1286.42 1656.77,1265.55 1660.32,1262.06 1679.75,1242.91 1685.11,1237.61 1702.66,1220.26 
  1709.9,1213.09 1725.5,1197.62 1734.69,1188.49 1748.27,1174.97 1759.48,1163.8 1770.98,1152.33 1784.27,1139.03 1793.61,1129.68 1809.07,1114.18 1816.18,1107.04 
  1833.86,1089.25 1838.67,1084.39 1858.65,1064.23 1861.1,1061.75 1883.44,1039.13 1883.47,1039.1 1905.71,1016.46 1908.23,1013.89 1927.89,993.811 1933.02,988.561 
  1950,971.166 1957.81,963.147 1972.04,948.52 1982.6,937.645 1994.02,925.875 2007.39,912.056 2015.92,903.23 2032.18,886.378 2037.77,880.585 2056.98,860.611 
  
  "/>
<polyline clip-path="url(#clip8302)" style="stroke:#000003; stroke-width:4; stroke-opacity:1; fill:none" points="
  642.615,1061.75 632.032,1084.39 619.628,1107.04 619.093,1107.75 602.323,1129.68 594.302,1139.77 584.042,1152.33 569.511,1169.46 564.703,1174.97 544.72,1197.07 
  544.208,1197.62 521.731,1220.26 519.929,1222.03 498.095,1242.91 495.138,1245.67 473.372,1265.55 470.346,1268.25 447.485,1288.2 445.555,1289.84 420.764,1310.38 
  420.163,1310.84 395.973,1329.1 389.941,1333.49 371.182,1346.76 357.438,1356.13 346.391,1363.46 322.386,1378.78 321.6,1379.27 296.809,1390.6 272.018,1400.26 
  248.496,1378.78 259.079,1356.13 271.483,1333.49 272.018,1332.77 288.788,1310.84 296.809,1300.75 307.068,1288.2 321.6,1271.06 326.408,1265.55 346.391,1243.46 
  346.903,1242.91 369.379,1220.26 371.182,1218.5 393.016,1197.62 395.973,1194.85 417.739,1174.97 420.764,1172.27 443.625,1152.33 445.555,1150.68 470.346,1130.15 
  470.948,1129.68 495.138,1111.43 501.17,1107.04 519.929,1093.76 533.672,1084.39 544.72,1077.06 568.724,1061.75 569.511,1061.26 594.302,1049.93 619.093,1040.26 
  642.615,1061.75 
  "/>
<polyline clip-path="url(#clip8302)" style="stroke:#000003; stroke-width:4; stroke-opacity:1; fill:none" points="
  581.784,1107.04 573.935,1129.68 569.511,1136.23 558.155,1152.33 544.72,1170.14 540.907,1174.97 521.182,1197.62 519.929,1198.92 498.718,1220.26 495.138,1223.75 
  474.827,1242.91 470.346,1247 449.37,1265.55 445.555,1268.82 422.187,1288.2 420.764,1289.34 395.973,1307.36 390.684,1310.84 371.182,1323.11 353.561,1333.49 
  346.391,1337.53 321.6,1344.7 309.327,1333.49 317.176,1310.84 321.6,1304.29 332.956,1288.2 346.391,1270.38 350.204,1265.55 369.929,1242.91 371.182,1241.61 
  392.393,1220.26 395.973,1216.78 416.283,1197.62 420.764,1193.52 441.74,1174.97 445.555,1171.7 468.923,1152.33 470.346,1151.18 495.138,1133.16 500.426,1129.68 
  519.929,1117.41 537.55,1107.04 544.72,1103 569.511,1095.83 581.784,1107.04 
  "/>
<polyline clip-path="url(#clip8302)" style="stroke:#000003; stroke-width:4; stroke-opacity:1; fill:none" points="
  536.217,1152.33 523.09,1174.97 519.929,1178.73 503.291,1197.62 495.138,1206.34 481.46,1220.26 470.346,1230.96 457.27,1242.91 445.555,1253.06 430.315,1265.55 
  420.764,1273 400.093,1288.2 395.973,1291.09 371.182,1303.08 354.893,1288.2 368.021,1265.55 371.182,1261.79 387.82,1242.91 395.973,1234.18 409.65,1220.26 
  420.764,1209.56 433.841,1197.62 445.555,1187.47 460.796,1174.97 470.346,1167.52 491.018,1152.33 495.138,1149.44 519.929,1137.45 536.217,1152.33 
  "/>
<polyline clip-path="url(#clip8302)" style="stroke:#000003; stroke-width:4; stroke-opacity:1; fill:none" points="
  505.547,1174.97 495.138,1192.93 492.06,1197.62 471.705,1220.26 470.346,1221.57 446.988,1242.91 445.555,1244.15 420.764,1262.74 415.635,1265.55 395.973,1275.06 
  385.564,1265.55 395.973,1247.59 399.051,1242.91 419.405,1220.26 420.764,1218.95 444.123,1197.62 445.555,1196.38 470.346,1177.78 475.476,1174.97 495.138,1165.46 
  505.547,1174.97 
  "/>
<polyline clip-path="url(#clip8302)" style="stroke:#000003; stroke-width:4; stroke-opacity:1; fill:none" points="
  473.211,1197.62 470.346,1201.18 466.441,1197.62 470.346,1195 473.211,1197.62 
  "/>
<polyline clip-path="url(#clip8302)" style="stroke:#000003; stroke-width:4; stroke-opacity:1; fill:none" points="
  479.465,1197.62 470.346,1208.97 459.891,1220.26 445.555,1233.36 433.199,1242.91 420.764,1251.24 411.646,1242.91 420.764,1231.55 431.22,1220.26 445.555,1207.17 
  457.912,1197.62 470.346,1189.29 479.465,1197.62 
  "/>
<polyline clip-path="url(#clip8302)" style="stroke:#000003; stroke-width:4; stroke-opacity:1; fill:none" points="
  445.988,1220.26 445.555,1220.66 445.122,1220.26 445.555,1219.87 445.988,1220.26 
  "/>
<polyline clip-path="url(#clip8302)" style="stroke:#000003; stroke-width:4; stroke-opacity:1; fill:none" points="
  446.427,1220.26 445.555,1221.06 444.684,1220.26 445.555,1219.47 446.427,1220.26 
  "/>
<polyline clip-path="url(#clip8302)" style="stroke:#000003; stroke-width:4; stroke-opacity:1; fill:none" points="
  447.311,1220.26 445.555,1221.87 443.8,1220.26 445.555,1218.66 447.311,1220.26 
  "/>
<polyline clip-path="url(#clip8302)" style="stroke:#000003; stroke-width:4; stroke-opacity:1; fill:none" points="
  449.09,1220.26 445.555,1223.49 442.02,1220.26 445.555,1217.03 449.09,1220.26 
  "/>
<polyline clip-path="url(#clip8302)" style="stroke:#000003; stroke-width:4; stroke-opacity:1; fill:none" points="
  452.674,1220.26 445.555,1226.76 438.437,1220.26 445.555,1213.76 452.674,1220.26 
  "/>
<polyline clip-path="url(#clip8302)" style="stroke:#000003; stroke-width:4; stroke-opacity:1; fill:none" points="
  424.67,1242.91 420.764,1245.52 417.9,1242.91 420.764,1239.34 424.67,1242.91 
  "/>
<polyline clip-path="url(#clip8302)" style="stroke:#ff0000; stroke-width:4; stroke-opacity:1; fill:none" points="
  1630.29,129.384 765.291,1095.09 663.838,1019.27 504.465,1197.2 485.773,1183.23 456.409,1216.01 452.965,1213.44 447.555,1219.48 446.92,1219.01 445.924,1220.12 
  445.807,1220.03 445.623,1220.24 445.602,1220.22 445.568,1220.26 445.564,1220.25 
  "/>
<polyline clip-path="url(#clip8302)" style="stroke:#ff0000; stroke-width:4; stroke-opacity:1; fill:none" stroke-dasharray="16, 10" points="
  1989.06,397.51 1789.39,263.284 1568.7,160.125 1473.01,369.028 1226.3,346.769 1324.77,554.59 1094.68,470.292 1203.81,673.624 981.451,573.489 1101.19,771.777 
  885.276,660.494 1014.18,853.927 803.865,734.034 940.439,923.024 735.016,796.253 877.959,981.272 676.801,848.916 825.027,1030.43 686.812,934.579 726.444,1003.3 
  670.315,985.2 685.095,1037.87 629.606,1018.19 651.359,1068.8 597.242,1046.16 622.976,1095.19 570.298,1069.87 598.994,1117.51 547.674,1089.96 578.703,1136.36 
  528.616,1106.98 561.526,1152.29 512.539,1121.4 546.983,1165.75 498.965,1133.62 534.668,1177.12 487.496,1143.96 513.217,1173.9 495.421,1164.76 500.981,1176.79 
  487.332,1172.92 493.276,1184.79 480.191,1179.54 486.752,1191.14 474.083,1185.09 481.219,1196.41 468.903,1189.78 476.528,1200.82 464.519,1193.75 472.552,1204.54 
  460.811,1197.1 469.184,1207.68 461.128,1202.26 463.289,1206.28 458.587,1205.01 460.813,1209 456.348,1207.16 458.74,1211.06 454.427,1208.94 456.984,1212.76 
  454.05,1211.13 454.824,1213.21 452.585,1212.41 453.532,1214.43 451.358,1213.5 452.44,1215.46 450.325,1214.41 451.515,1216.32 449.455,1215.19 450.732,1217.05 
  448.721,1215.85 450.069,1217.67 448.102,1216.41 449.507,1218.19 447.578,1216.88 449.032,1218.63 447.136,1217.28 448.629,1219 446.761,1217.62 447.83,1218.8 
  447.132,1218.4 447.398,1218.87 447.025,1218.73 447.12,1219.09 446.748,1218.95 446.899,1219.29 446.536,1219.13 446.714,1219.46 446.36,1219.28 446.559,1219.6 
  446.213,1219.41 446.427,1219.72 446.089,1219.52 446.315,1219.83 445.985,1219.62 446.221,1219.91 445.897,1219.69 446.067,1219.9 445.945,1219.84 445.977,1219.93 
  445.883,1219.9 445.918,1219.99 445.827,1219.95 445.868,1220.03 445.78,1220 445.825,1220.08 445.74,1220.03 445.789,1220.11 445.706,1220.06 445.758,1220.14 
  445.678,1220.09 445.733,1220.16 445.653,1220.11 445.711,1220.18 445.633,1220.13 445.692,1220.2 445.639,1220.16 445.655,1220.19 445.633,1220.18 445.64,1220.2 
  445.619,1220.19 445.628,1220.21 445.608,1220.2 445.618,1220.22 445.598,1220.21 445.61,1220.23 445.59,1220.22 445.603,1220.23 445.584,1220.22 445.597,1220.24 
  445.578,1220.23 445.588,1220.24 445.58,1220.24 445.583,1220.24 445.576,1220.24 445.579,1220.25 445.572,1220.24 445.576,1220.25 445.569,1220.25 445.573,1220.25 
  445.566,1220.25 445.569,1220.25 
  "/>
<polyline clip-path="url(#clip8302)" style="stroke:#0000ff; stroke-width:4; stroke-opacity:1; fill:none" points="
  1630.29,129.384 587.549,911.781 657.033,1031.79 466.423,1174.86 476.661,1192.54 448.625,1213.58 450.131,1216.18 446.007,1219.28 446.229,1219.66 445.622,1220.12 
  445.654,1220.17 445.565,1220.24 445.57,1220.25 
  "/>
<polyline clip-path="url(#clip8302)" style="stroke:#0000ff; stroke-width:4; stroke-opacity:1; fill:none" stroke-dasharray="16, 10" points="
  2027.43,426.19 1838.69,293.804 1630.47,174.728 1404.44,217.63 1408.35,401.727 1211.1,448.371 1192.3,637.876 1000.04,619.477 1028.9,786.203 852.96,746.963 
  906.313,901.221 743.177,844.814 812.597,988.873 659.568,919.838 740.713,1055.7 595.705,977.378 685.558,1106.74 546.868,1021.52 643.239,1145.78 509.494,1055.38 
  610.771,1175.67 519.845,1109.65 550.457,1153.76 514.587,1136.56 525.792,1160.74 506.029,1155.49 509.39,1174.68 489.257,1168.87 495.947,1186.64 477.201,1179.35 
  485.785,1195.98 468.139,1187.41 478.017,1203.14 461.239,1193.61 472.063,1208.63 455.967,1198.36 464.038,1208.49 458.068,1205.57 459.798,1209.71 455.026,1208.45 
  456.912,1212.61 452.447,1210.87 454.649,1214.79 451.706,1213.34 452.411,1215.42 450.121,1214.68 451.018,1216.71 448.86,1215.8 449.935,1217.71 447.895,1216.67 
  449.103,1218.48 447.158,1217.33 448.465,1219.07 446.594,1217.84 447.975,1219.52 446.706,1218.62 447.117,1219.24 446.612,1219.01 446.755,1219.35 446.356,1219.27 
  446.51,1219.61 446.139,1219.47 446.319,1219.8 446.075,1219.68 446.132,1219.85 445.942,1219.79 446.015,1219.96 445.836,1219.89 445.923,1220.04 445.754,1219.96 
  445.853,1220.11 445.692,1220.02 445.799,1220.16 445.645,1220.06 445.758,1220.2 445.653,1220.12 445.687,1220.18 445.645,1220.16 445.656,1220.19 445.623,1220.18 
  445.636,1220.21 445.605,1220.2 445.62,1220.22 445.591,1220.21 445.607,1220.23 445.588,1220.22 445.594,1220.24 445.579,1220.23 445.586,1220.24 445.572,1220.24 
  445.58,1220.25 445.567,1220.24 445.573,1220.25 445.568,1220.25 
  "/>
<defs>
  <clipPath id="clip8303">
    <rect x="2160" y="47" width="73" height="1441"/>
  </clipPath>
</defs>
<polyline clip-path="url(#clip8303)" style="stroke:#000003; stroke-width:4; stroke-opacity:1; fill:none" points="
  2160.76,1487.47 2232.76,1487.47 
  "/>
<polyline clip-path="url(#clip8303)" style="stroke:#000003; stroke-width:4; stroke-opacity:1; fill:none" points="
  2160.76,1487.47 2232.76,1487.47 
  "/>
<polyline clip-path="url(#clip8303)" style="stroke:#000003; stroke-width:4; stroke-opacity:1; fill:none" points="
  2160.76,1487.46 2232.76,1487.46 
  "/>
<polyline clip-path="url(#clip8303)" style="stroke:#000003; stroke-width:4; stroke-opacity:1; fill:none" points="
  2160.76,1487.44 2232.76,1487.44 
  "/>
<polyline clip-path="url(#clip8303)" style="stroke:#000003; stroke-width:4; stroke-opacity:1; fill:none" points="
  2160.76,1487.4 2232.76,1487.4 
  "/>
<polyline clip-path="url(#clip8303)" style="stroke:#000003; stroke-width:4; stroke-opacity:1; fill:none" points="
  2160.76,1487.32 2232.76,1487.32 
  "/>
<polyline clip-path="url(#clip8303)" style="stroke:#000003; stroke-width:4; stroke-opacity:1; fill:none" points="
  2160.76,1487.17 2232.76,1487.17 
  "/>
<polyline clip-path="url(#clip8303)" style="stroke:#000003; stroke-width:4; stroke-opacity:1; fill:none" points="
  2160.76,1486.86 2232.76,1486.86 
  "/>
<polyline clip-path="url(#clip8303)" style="stroke:#000003; stroke-width:4; stroke-opacity:1; fill:none" points="
  2160.76,1486.24 2232.76,1486.24 
  "/>
<polyline clip-path="url(#clip8303)" style="stroke:#000003; stroke-width:4; stroke-opacity:1; fill:none" points="
  2160.76,1485 2232.76,1485 
  "/>
<polyline clip-path="url(#clip8303)" style="stroke:#000005; stroke-width:4; stroke-opacity:1; fill:none" points="
  2160.76,1482.48 2232.76,1482.48 
  "/>
<polyline clip-path="url(#clip8303)" style="stroke:#010007; stroke-width:4; stroke-opacity:1; fill:none" points="
  2160.76,1477.42 2232.76,1477.42 
  "/>
<polyline clip-path="url(#clip8303)" style="stroke:#02010b; stroke-width:4; stroke-opacity:1; fill:none" points="
  2160.76,1467.23 2232.76,1467.23 
  "/>
<polyline clip-path="url(#clip8303)" style="stroke:#030211; stroke-width:4; stroke-opacity:1; fill:none" points="
  2160.76,1446.71 2232.76,1446.71 
  "/>
<polyline clip-path="url(#clip8303)" style="stroke:#0a0622; stroke-width:4; stroke-opacity:1; fill:none" points="
  2160.76,1405.39 2232.76,1405.39 
  "/>
<polyline clip-path="url(#clip8303)" style="stroke:#1b0b42; stroke-width:4; stroke-opacity:1; fill:none" points="
  2160.76,1322.17 2232.76,1322.17 
  "/>
<polyline clip-path="url(#clip8303)" style="stroke:#4f0d6b; stroke-width:4; stroke-opacity:1; fill:none" points="
  2160.76,1154.6 2232.76,1154.6 
  "/>
<polyline clip-path="url(#clip8303)" style="stroke:#ad305b; stroke-width:4; stroke-opacity:1; fill:none" points="
  2160.76,817.149 2232.76,817.149 
  "/>
<g clip-path="url(#clip8300)">
<text style="fill:#000000; fill-opacity:1; font-family:Arial,Helvetica Neue,Helvetica,sans-serif; font-size:48px; text-anchor:start;" transform="rotate(0, 2268.76, 1501.13)" x="2268.76" y="1501.13">0</text>
</g>
<g clip-path="url(#clip8300)">
<text style="fill:#000000; fill-opacity:1; font-family:Arial,Helvetica Neue,Helvetica,sans-serif; font-size:48px; text-anchor:start;" transform="rotate(0, 2268.76, 1250.48)" x="2268.76" y="1250.48">2.5</text>
</g>
<g clip-path="url(#clip8300)">
<text style="fill:#000000; fill-opacity:1; font-family:Arial,Helvetica Neue,Helvetica,sans-serif; font-size:48px; text-anchor:start;" transform="rotate(0, 2268.76, 999.827)" x="2268.76" y="999.827">5.0</text>
</g>
<g clip-path="url(#clip8300)">
<text style="fill:#000000; fill-opacity:1; font-family:Arial,Helvetica Neue,Helvetica,sans-serif; font-size:48px; text-anchor:start;" transform="rotate(0, 2268.76, 749.178)" x="2268.76" y="749.178">7.5</text>
</g>
<g clip-path="url(#clip8300)">
<text style="fill:#000000; fill-opacity:1; font-family:Arial,Helvetica Neue,Helvetica,sans-serif; font-size:48px; text-anchor:start;" transform="rotate(0, 2268.76, 498.529)" x="2268.76" y="498.529">10.0</text>
</g>
<g clip-path="url(#clip8300)">
<text style="fill:#000000; fill-opacity:1; font-family:Arial,Helvetica Neue,Helvetica,sans-serif; font-size:48px; text-anchor:start;" transform="rotate(0, 2268.76, 247.88)" x="2268.76" y="247.88">12.5</text>
</g>
<polyline clip-path="url(#clip8300)" style="stroke:#000000; stroke-width:4; stroke-opacity:1; fill:none" points="
  2232.76,1487.47 2232.76,1487.47 2256.76,1487.47 2232.76,1487.47 2232.76,1236.83 2256.76,1236.83 2232.76,1236.83 2232.76,986.176 2256.76,986.176 2232.76,986.176 
  2232.76,735.527 2256.76,735.527 2232.76,735.527 2232.76,484.878 2256.76,484.878 2232.76,484.878 2232.76,234.228 2256.76,234.228 2232.76,234.228 2232.76,47.2441 
  
  "/>
<path clip-path="url(#clip8300)" d="
M1360.67 1343.47 L2040.76 1343.47 L2040.76 1041.07 L1360.67 1041.07  Z
  " fill="#ffffff" fill-rule="evenodd" fill-opacity="1"/>
<polyline clip-path="url(#clip8300)" style="stroke:#000000; stroke-width:4; stroke-opacity:1; fill:none" points="
  1360.67,1343.47 2040.76,1343.47 2040.76,1041.07 1360.67,1041.07 1360.67,1343.47 
  "/>
<polyline clip-path="url(#clip8300)" style="stroke:#ff0000; stroke-width:4; stroke-opacity:1; fill:none" points="
  1384.67,1101.55 1528.67,1101.55 
  "/>
<g clip-path="url(#clip8300)">
<text style="fill:#000000; fill-opacity:1; font-family:Arial,Helvetica Neue,Helvetica,sans-serif; font-size:48px; text-anchor:start;" transform="rotate(0, 1552.67, 1119.05)" x="1552.67" y="1119.05">Gradient - Golden</text>
</g>
<polyline clip-path="url(#clip8300)" style="stroke:#ff0000; stroke-width:4; stroke-opacity:1; fill:none" stroke-dasharray="16, 10" points="
  1384.67,1162.03 1528.67,1162.03 
  "/>
<g clip-path="url(#clip8300)">
<text style="fill:#000000; fill-opacity:1; font-family:Arial,Helvetica Neue,Helvetica,sans-serif; font-size:48px; text-anchor:start;" transform="rotate(0, 1552.67, 1179.53)" x="1552.67" y="1179.53">Gradient - Armijo</text>
</g>
<polyline clip-path="url(#clip8300)" style="stroke:#0000ff; stroke-width:4; stroke-opacity:1; fill:none" points="
  1384.67,1222.51 1528.67,1222.51 
  "/>
<g clip-path="url(#clip8300)">
<text style="fill:#000000; fill-opacity:1; font-family:Arial,Helvetica Neue,Helvetica,sans-serif; font-size:48px; text-anchor:start;" transform="rotate(0, 1552.67, 1240.01)" x="1552.67" y="1240.01">Heavy Ball - Golden</text>
</g>
<polyline clip-path="url(#clip8300)" style="stroke:#0000ff; stroke-width:4; stroke-opacity:1; fill:none" stroke-dasharray="16, 10" points="
  1384.67,1282.99 1528.67,1282.99 
  "/>
<g clip-path="url(#clip8300)">
<text style="fill:#000000; fill-opacity:1; font-family:Arial,Helvetica Neue,Helvetica,sans-serif; font-size:48px; text-anchor:start;" transform="rotate(0, 1552.67, 1300.49)" x="1552.67" y="1300.49">Heavy Ball - Armijo</text>
</g>
</svg>
